<?xml version="1.0" encoding="UTF-8" standalone="no"?>
<!-- Generator: Adobe Illustrator 16.1.0, SVG Export Plug-In . SVG Version: 6.00 Build 0)  -->

<svg
   xmlns:dc="http://purl.org/dc/elements/1.1/"
   xmlns:cc="http://creativecommons.org/ns#"
   xmlns:rdf="http://www.w3.org/1999/02/22-rdf-syntax-ns#"
   xmlns:svg="http://www.w3.org/2000/svg"
   xmlns="http://www.w3.org/2000/svg"
   xmlns:sodipodi="http://sodipodi.sourceforge.net/DTD/sodipodi-0.dtd"
   xmlns:inkscape="http://www.inkscape.org/namespaces/inkscape"
   version="1.1"
   id="Layer_1"
   x="0px"
   y="0px"
   width="48px"
   height="48px"
   viewBox="0 0 48 48"
   enable-background="new 0 0 48 48"
   xml:space="preserve"
   inkscape:version="0.48.4 r9939"
   sodipodi:docname="Cost.svg"><metadata
   id="metadata5566"><rdf:RDF><cc:Work
       rdf:about=""><dc:format>image/svg+xml</dc:format><dc:type
         rdf:resource="http://purl.org/dc/dcmitype/StillImage" /><dc:title></dc:title></cc:Work></rdf:RDF></metadata><defs
   id="defs5564" /><sodipodi:namedview
   pagecolor="#ffffff"
   bordercolor="#666666"
   borderopacity="1"
   objecttolerance="10"
   gridtolerance="10"
   guidetolerance="10"
   inkscape:pageopacity="0"
   inkscape:pageshadow="2"
   inkscape:window-width="1366"
   inkscape:window-height="706"
   id="namedview5562"
   showgrid="false"
   inkscape:zoom="4.9166667"
   inkscape:cx="24"
   inkscape:cy="24"
   inkscape:window-x="-8"
   inkscape:window-y="-8"
   inkscape:window-maximized="1"
   inkscape:current-layer="Layer_1" />

<g
   id="g5556"
   transform="matrix(1.3901268,0,0,1.2699268,-11.637193,-13.741297)">
	<path
   d="m 24.811,24.011 -1.865,8.749 c -0.332,1.568 -1.029,2.85 -2.096,3.844 -1.062,0.996 -2.16,1.494 -3.289,1.494 -0.619,0 -1.076,-0.119 -1.369,-0.355 -0.293,-0.236 -0.439,-0.535 -0.439,-0.895 0,-0.305 0.092,-0.572 0.275,-0.805 0.186,-0.232 0.449,-0.35 0.795,-0.35 0.221,0 0.412,0.049 0.578,0.148 0.166,0.098 0.311,0.223 0.438,0.371 0.1,0.119 0.211,0.281 0.334,0.486 0.125,0.205 0.232,0.381 0.324,0.529 0.543,-0.041 1.008,-0.408 1.393,-1.102 0.385,-0.691 0.719,-1.68 1,-2.965 l 1.953,-9.151 h -2.07 l 0.223,-0.964 h 2.041 l 0.152,-0.718 c 0.168,-0.817 0.438,-1.554 0.805,-2.21 0.367,-0.655 0.783,-1.212 1.248,-1.67 0.461,-0.451 0.98,-0.805 1.564,-1.062 C 27.387,17.129 27.945,17 28.482,17 c 0.621,0 1.078,0.119 1.371,0.354 0.293,0.237 0.439,0.535 0.439,0.896 0,0.303 -0.086,0.572 -0.26,0.805 -0.174,0.233 -0.445,0.349 -0.812,0.349 -0.221,0 -0.41,-0.047 -0.574,-0.143 -0.164,-0.095 -0.309,-0.221 -0.438,-0.376 -0.141,-0.175 -0.254,-0.343 -0.338,-0.498 -0.086,-0.154 -0.191,-0.328 -0.32,-0.519 -0.488,0.021 -0.92,0.342 -1.297,0.962 -0.375,0.619 -0.711,1.652 -1.012,3.097 l -0.238,1.12 h 2.674 l -0.223,0.964 h -2.643 z"
   id="path5558"
   inkscape:connector-curvature="0"
   style="fill:#333333" />
	<path
   d="m 26.865,33.395 2.463,-3.654 -2.357,-3.547 h 2.311 l 1.205,2.09 1.178,-2.09 h 2.242 L 31.538,29.708 34,33.395 h -2.35 l -1.24,-2.17 -1.256,2.17 h -2.289 z"
   id="path5560"
   inkscape:connector-curvature="0"
   style="fill:#333333" />
</g>
<g
   transform="translate(1.5254236,32.041636)"
   id="g5675"><rect
     y="5.6540155"
     x="7.0700045"
     height="5.9646287"
     width="34.063381"
     id="rect3318-6-4-5"
     style="fill:#4d4d4d" /><rect
     y="6.8721433"
     x="8.5615664"
     height="3.7803981"
     width="30.945143"
     id="rect3320-37-7-0"
     style="fill:#666666" /><rect
     y="6.8667846"
     x="8.5372572"
     height="3.7721047"
     width="5.1121464"
     id="rect3473-88-2-7"
     style="fill:#808080" /><rect
     y="6.8816352"
     x="14.884839"
     height="3.7721047"
     width="5.1121464"
     id="rect3473-2-2-1-6"
     style="fill:#ffffff" /><rect
     y="6.851933"
     x="21.275023"
     height="3.7721047"
     width="5.1121464"
     id="rect3473-21-9-4-7"
     style="fill:#999999" /><rect
     y="6.851933"
     x="27.920815"
     height="3.7721047"
     width="5.1121464"
     id="rect3473-6-1-9-8"
     style="fill:#ffffff" /><rect
     y="6.8222318"
     x="34.396194"
     height="3.7721047"
     width="5.1121464"
     id="rect3473-8-3-9-3"
     style="fill:#808080" /></g></svg>