<?xml version="1.0" standalone="no"?>
<!DOCTYPE svg PUBLIC "-//W3C//DTD SVG 20010904//EN"
  "http://www.w3.org/TR/2001/REC-SVG-20010904/DTD/svg10.dtd">
<svg width="24" height="24">
  <circle cx="0" cy="0" r="1" fill="none"/>
  <circle cx="1" cy="0" r="1" fill="none"/>
  <circle cx="2" cy="0" r="1" fill="none"/>
  <circle cx="3" cy="0" r="1" fill="none"/>
  <circle cx="4" cy="0" r="1" fill="none"/>
  <circle cx="5" cy="0" r="1" fill="none"/>
  <circle cx="6" cy="0" r="1" fill="none"/>
  <circle cx="7" cy="0" r="1" fill="none"/>
  <circle cx="8" cy="0" r="1" fill="none"/>
  <circle cx="9" cy="0" r="1" fill="none"/>
  <circle cx="10" cy="0" r="1" fill="none"/>
  <circle cx="11" cy="0" r="1" fill="none"/>
  <circle cx="12" cy="0" r="1" fill="none"/>
  <circle cx="13" cy="0" r="1" fill="none"/>
  <circle cx="14" cy="0" r="1" fill="none"/>
  <circle cx="15" cy="0" r="1" fill="none"/>
  <circle cx="16" cy="0" r="1" fill="none"/>
  <circle cx="17" cy="0" r="1" fill="none"/>
  <circle cx="18" cy="0" r="1" fill="none"/>
  <circle cx="19" cy="0" r="1" fill="none"/>
  <circle cx="20" cy="0" r="1" fill="none"/>
  <circle cx="21" cy="0" r="1" fill="none"/>
  <circle cx="22" cy="0" r="1" fill="none"/>
  <circle cx="23" cy="0" r="1" fill="none"/>
  <circle cx="0" cy="1" r="1" fill="none"/>
  <circle cx="1" cy="1" r="1" fill="none"/>
  <circle cx="2" cy="1" r="1" fill="none"/>
  <circle cx="3" cy="1" r="1" fill="none"/>
  <circle cx="4" cy="1" r="1" fill="none"/>
  <circle cx="5" cy="1" r="1" fill="none"/>
  <circle cx="6" cy="1" r="1" fill="none"/>
  <circle cx="7" cy="1" r="1" fill="none"/>
  <circle cx="8" cy="1" r="1" fill="none"/>
  <circle cx="9" cy="1" r="1" fill="none"/>
  <circle cx="10" cy="1" r="1" fill="none"/>
  <circle cx="11" cy="1" r="1" fill="none"/>
  <circle cx="12" cy="1" r="1" fill="none"/>
  <circle cx="13" cy="1" r="1" fill="none"/>
  <circle cx="14" cy="1" r="1" fill="none"/>
  <circle cx="15" cy="1" r="1" fill="none"/>
  <circle cx="16" cy="1" r="1" fill="none"/>
  <circle cx="17" cy="1" r="1" fill="none"/>
  <circle cx="18" cy="1" r="1" fill="none"/>
  <circle cx="19" cy="1" r="1" fill="none"/>
  <circle cx="20" cy="1" r="1" fill="none"/>
  <circle cx="21" cy="1" r="1" fill="none"/>
  <circle cx="22" cy="1" r="1" fill="none"/>
  <circle cx="23" cy="1" r="1" fill="none"/>
  <circle cx="0" cy="2" r="1" fill="none"/>
  <circle cx="1" cy="2" r="1" fill="none"/>
  <circle cx="2" cy="2" r="1" fill="none"/>
  <circle cx="3" cy="2" r="1" fill="none"/>
  <circle cx="4" cy="2" r="1" fill="none"/>
  <circle cx="5" cy="2" r="1" fill="none"/>
  <circle cx="6" cy="2" r="1" fill="none"/>
  <circle cx="7" cy="2" r="1" fill="none"/>
  <circle cx="8" cy="2" r="1" fill="none"/>
  <circle cx="9" cy="2" r="1" fill="none"/>
  <circle cx="10" cy="2" r="1" fill="none"/>
  <circle cx="11" cy="2" r="1" fill="none"/>
  <circle cx="12" cy="2" r="1" fill="none"/>
  <circle cx="13" cy="2" r="1" fill="none"/>
  <circle cx="14" cy="2" r="1" fill="none"/>
  <circle cx="15" cy="2" r="1" fill="none"/>
  <circle cx="16" cy="2" r="1" fill="none"/>
  <circle cx="17" cy="2" r="1" fill="none"/>
  <circle cx="18" cy="2" r="1" fill="none"/>
  <circle cx="19" cy="2" r="1" fill="none"/>
  <circle cx="20" cy="2" r="1" fill="none"/>
  <circle cx="21" cy="2" r="1" fill="none"/>
  <circle cx="22" cy="2" r="1" fill="none"/>
  <circle cx="23" cy="2" r="1" fill="none"/>
  <circle cx="0" cy="3" r="1" fill="none"/>
  <circle cx="1" cy="3" r="1" fill="none"/>
  <circle cx="2" cy="3" r="1" fill="none"/>
  <circle cx="3" cy="3" r="1" fill="none"/>
  <circle cx="4" cy="3" r="1" fill="none"/>
  <circle cx="5" cy="3" r="1" fill="none"/>
  <circle cx="6" cy="3" r="1" fill="none"/>
  <circle cx="7" cy="3" r="1" fill="rgba(85,85,85,0.0352941)"/>
  <circle cx="8" cy="3" r="1" fill="rgba(0,0,0,0.00392157)"/>
  <circle cx="9" cy="3" r="1" fill="none"/>
  <circle cx="10" cy="3" r="1" fill="none"/>
  <circle cx="11" cy="3" r="1" fill="none"/>
  <circle cx="12" cy="3" r="1" fill="none"/>
  <circle cx="13" cy="3" r="1" fill="none"/>
  <circle cx="14" cy="3" r="1" fill="none"/>
  <circle cx="15" cy="3" r="1" fill="rgba(0,0,0,0.00392157)"/>
  <circle cx="16" cy="3" r="1" fill="rgba(85,85,85,0.0352941)"/>
  <circle cx="17" cy="3" r="1" fill="none"/>
  <circle cx="18" cy="3" r="1" fill="none"/>
  <circle cx="19" cy="3" r="1" fill="none"/>
  <circle cx="20" cy="3" r="1" fill="none"/>
  <circle cx="21" cy="3" r="1" fill="none"/>
  <circle cx="22" cy="3" r="1" fill="none"/>
  <circle cx="23" cy="3" r="1" fill="none"/>
  <circle cx="0" cy="4" r="1" fill="none"/>
  <circle cx="1" cy="4" r="1" fill="none"/>
  <circle cx="2" cy="4" r="1" fill="none"/>
  <circle cx="3" cy="4" r="1" fill="none"/>
  <circle cx="4" cy="4" r="1" fill="none"/>
  <circle cx="5" cy="4" r="1" fill="none"/>
  <circle cx="6" cy="4" r="1" fill="rgba(77,77,77,0.0392157)"/>
  <circle cx="7" cy="4" r="1" fill="rgba(82,82,82,0.788235)"/>
  <circle cx="8" cy="4" r="1" fill="rgba(83,83,83,0.627451)"/>
  <circle cx="9" cy="4" r="1" fill="rgba(0,0,0,0.00392157)"/>
  <circle cx="10" cy="4" r="1" fill="none"/>
  <circle cx="11" cy="4" r="1" fill="none"/>
  <circle cx="12" cy="4" r="1" fill="none"/>
  <circle cx="13" cy="4" r="1" fill="none"/>
  <circle cx="14" cy="4" r="1" fill="rgba(0,0,0,0.00392157)"/>
  <circle cx="15" cy="4" r="1" fill="rgba(83,83,83,0.627451)"/>
  <circle cx="16" cy="4" r="1" fill="rgba(82,82,82,0.788235)"/>
  <circle cx="17" cy="4" r="1" fill="rgba(77,77,77,0.0392157)"/>
  <circle cx="18" cy="4" r="1" fill="none"/>
  <circle cx="19" cy="4" r="1" fill="none"/>
  <circle cx="20" cy="4" r="1" fill="none"/>
  <circle cx="21" cy="4" r="1" fill="none"/>
  <circle cx="22" cy="4" r="1" fill="none"/>
  <circle cx="23" cy="4" r="1" fill="none"/>
  <circle cx="0" cy="5" r="1" fill="none"/>
  <circle cx="1" cy="5" r="1" fill="none"/>
  <circle cx="2" cy="5" r="1" fill="none"/>
  <circle cx="3" cy="5" r="1" fill="none"/>
  <circle cx="4" cy="5" r="1" fill="none"/>
  <circle cx="5" cy="5" r="1" fill="rgba(77,77,77,0.0392157)"/>
  <circle cx="6" cy="5" r="1" fill="rgba(84,84,84,0.788235)"/>
  <circle cx="7" cy="5" r="1" fill="rgba(163,163,163,0.980392)"/>
  <circle cx="8" cy="5" r="1" fill="rgba(196,196,196,0.984314)"/>
  <circle cx="9" cy="5" r="1" fill="rgba(84,84,84,0.627451)"/>
  <circle cx="10" cy="5" r="1" fill="rgba(0,0,0,0.00392157)"/>
  <circle cx="11" cy="5" r="1" fill="none"/>
  <circle cx="12" cy="5" r="1" fill="none"/>
  <circle cx="13" cy="5" r="1" fill="rgba(0,0,0,0.00392157)"/>
  <circle cx="14" cy="5" r="1" fill="rgba(84,84,84,0.627451)"/>
  <circle cx="15" cy="5" r="1" fill="rgba(173,173,173,0.976471)"/>
  <circle cx="16" cy="5" r="1" fill="rgba(148,148,148,0.976471)"/>
  <circle cx="17" cy="5" r="1" fill="rgba(84,84,84,0.788235)"/>
  <circle cx="18" cy="5" r="1" fill="rgba(77,77,77,0.0392157)"/>
  <circle cx="19" cy="5" r="1" fill="none"/>
  <circle cx="20" cy="5" r="1" fill="none"/>
  <circle cx="21" cy="5" r="1" fill="none"/>
  <circle cx="22" cy="5" r="1" fill="none"/>
  <circle cx="23" cy="5" r="1" fill="none"/>
  <circle cx="0" cy="6" r="1" fill="none"/>
  <circle cx="1" cy="6" r="1" fill="none"/>
  <circle cx="2" cy="6" r="1" fill="none"/>
  <circle cx="3" cy="6" r="1" fill="none"/>
  <circle cx="4" cy="6" r="1" fill="rgba(77,77,77,0.0392157)"/>
  <circle cx="5" cy="6" r="1" fill="rgba(84,84,84,0.788235)"/>
  <circle cx="6" cy="6" r="1" fill="rgba(159,159,159,0.980392)"/>
  <circle cx="7" cy="6" r="1" fill="grey92"/>
  <circle cx="8" cy="6" r="1" fill="rgba(233,233,233,1)"/>
  <circle cx="9" cy="6" r="1" fill="rgba(182,182,182,0.976471)"/>
  <circle cx="10" cy="6" r="1" fill="rgba(84,84,84,0.627451)"/>
  <circle cx="11" cy="6" r="1" fill="rgba(0,0,0,0.00392157)"/>
  <circle cx="12" cy="6" r="1" fill="rgba(0,0,0,0.00392157)"/>
  <circle cx="13" cy="6" r="1" fill="rgba(84,84,84,0.627451)"/>
  <circle cx="14" cy="6" r="1" fill="rgba(166,166,166,0.972549)"/>
  <circle cx="15" cy="6" r="1" fill="LightGray"/>
  <circle cx="16" cy="6" r="1" fill="rgba(206,206,206,1)"/>
  <circle cx="17" cy="6" r="1" fill="rgba(140,140,140,0.976471)"/>
  <circle cx="18" cy="6" r="1" fill="rgba(84,84,84,0.788235)"/>
  <circle cx="19" cy="6" r="1" fill="rgba(77,77,77,0.0392157)"/>
  <circle cx="20" cy="6" r="1" fill="none"/>
  <circle cx="21" cy="6" r="1" fill="none"/>
  <circle cx="22" cy="6" r="1" fill="none"/>
  <circle cx="23" cy="6" r="1" fill="none"/>
  <circle cx="0" cy="7" r="1" fill="none"/>
  <circle cx="1" cy="7" r="1" fill="none"/>
  <circle cx="2" cy="7" r="1" fill="none"/>
  <circle cx="3" cy="7" r="1" fill="rgba(85,85,85,0.0352941)"/>
  <circle cx="4" cy="7" r="1" fill="rgba(82,82,82,0.788235)"/>
  <circle cx="5" cy="7" r="1" fill="rgba(155,155,155,0.980392)"/>
  <circle cx="6" cy="7" r="1" fill="rgba(226,226,226,1)"/>
  <circle cx="7" cy="7" r="1" fill="rgba(208,208,208,1)"/>
  <circle cx="8" cy="7" r="1" fill="rgba(206,206,206,1)"/>
  <circle cx="9" cy="7" r="1" fill="rgba(218,218,218,1)"/>
  <circle cx="10" cy="7" r="1" fill="rgba(167,167,167,0.972549)"/>
  <circle cx="11" cy="7" r="1" fill="rgba(84,84,84,0.627451)"/>
  <circle cx="12" cy="7" r="1" fill="rgba(84,84,84,0.627451)"/>
  <circle cx="13" cy="7" r="1" fill="rgba(156,156,156,0.968627)"/>
  <circle cx="14" cy="7" r="1" fill="rgba(202,202,202,1)"/>
  <circle cx="15" cy="7" r="1" fill="rgba(172,172,172,1)"/>
  <circle cx="16" cy="7" r="1" fill="grey64"/>
  <circle cx="17" cy="7" r="1" fill="grey"/>
  <circle cx="18" cy="7" r="1" fill="rgba(133,133,133,0.976471)"/>
  <circle cx="19" cy="7" r="1" fill="rgba(82,82,82,0.788235)"/>
  <circle cx="20" cy="7" r="1" fill="rgba(85,85,85,0.0352941)"/>
  <circle cx="21" cy="7" r="1" fill="none"/>
  <circle cx="22" cy="7" r="1" fill="none"/>
  <circle cx="23" cy="7" r="1" fill="none"/>
  <circle cx="0" cy="8" r="1" fill="none"/>
  <circle cx="1" cy="8" r="1" fill="none"/>
  <circle cx="2" cy="8" r="1" fill="none"/>
  <circle cx="3" cy="8" r="1" fill="rgba(0,0,0,0.00392157)"/>
  <circle cx="4" cy="8" r="1" fill="rgba(83,83,83,0.627451)"/>
  <circle cx="5" cy="8" r="1" fill="rgba(169,169,169,0.972549)"/>
  <circle cx="6" cy="8" r="1" fill="rgba(216,216,216,1)"/>
  <circle cx="7" cy="8" r="1" fill="rgba(193,193,193,1)"/>
  <circle cx="8" cy="8" r="1" fill="grey71"/>
  <circle cx="9" cy="8" r="1" fill="rgba(183,183,183,1)"/>
  <circle cx="10" cy="8" r="1" fill="rgba(202,202,202,1)"/>
  <circle cx="11" cy="8" r="1" fill="rgba(150,150,150,0.968627)"/>
  <circle cx="12" cy="8" r="1" fill="rgba(146,146,146,0.968627)"/>
  <circle cx="13" cy="8" r="1" fill="rgba(193,193,193,1)"/>
  <circle cx="14" cy="8" r="1" fill="grey62"/>
  <circle cx="15" cy="8" r="1" fill="rgba(144,144,144,1)"/>
  <circle cx="16" cy="8" r="1" fill="grey58"/>
  <circle cx="17" cy="8" r="1" fill="rgba(180,180,180,1)"/>
  <circle cx="18" cy="8" r="1" fill="rgba(125,125,125,0.960784)"/>
  <circle cx="19" cy="8" r="1" fill="rgba(83,83,83,0.627451)"/>
  <circle cx="20" cy="8" r="1" fill="rgba(0,0,0,0.00392157)"/>
  <circle cx="21" cy="8" r="1" fill="none"/>
  <circle cx="22" cy="8" r="1" fill="none"/>
  <circle cx="23" cy="8" r="1" fill="none"/>
  <circle cx="0" cy="9" r="1" fill="none"/>
  <circle cx="1" cy="9" r="1" fill="none"/>
  <circle cx="2" cy="9" r="1" fill="none"/>
  <circle cx="3" cy="9" r="1" fill="none"/>
  <circle cx="4" cy="9" r="1" fill="rgba(0,0,0,0.00392157)"/>
  <circle cx="5" cy="9" r="1" fill="rgba(84,84,84,0.627451)"/>
  <circle cx="6" cy="9" r="1" fill="rgba(154,154,154,0.968627)"/>
  <circle cx="7" cy="9" r="1" fill="rgba(200,200,200,1)"/>
  <circle cx="8" cy="9" r="1" fill="rgba(170,170,170,1)"/>
  <circle cx="9" cy="9" r="1" fill="grey61"/>
  <circle cx="10" cy="9" r="1" fill="rgba(160,160,160,1)"/>
  <circle cx="11" cy="9" r="1" fill="rgba(188,188,188,1)"/>
  <circle cx="12" cy="9" r="1" fill="rgba(185,185,185,1)"/>
  <circle cx="13" cy="9" r="1" fill="grey57"/>
  <circle cx="14" cy="9" r="1" fill="grey51"/>
  <circle cx="15" cy="9" r="1" fill="grey53"/>
  <circle cx="16" cy="9" r="1" fill="grey67"/>
  <circle cx="17" cy="9" r="1" fill="rgba(116,116,116,0.960784)"/>
  <circle cx="18" cy="9" r="1" fill="rgba(82,82,82,0.623529)"/>
  <circle cx="19" cy="9" r="1" fill="rgba(0,0,0,0.00392157)"/>
  <circle cx="20" cy="9" r="1" fill="none"/>
  <circle cx="21" cy="9" r="1" fill="none"/>
  <circle cx="22" cy="9" r="1" fill="none"/>
  <circle cx="23" cy="9" r="1" fill="none"/>
  <circle cx="0" cy="10" r="1" fill="none"/>
  <circle cx="1" cy="10" r="1" fill="none"/>
  <circle cx="2" cy="10" r="1" fill="none"/>
  <circle cx="3" cy="10" r="1" fill="none"/>
  <circle cx="4" cy="10" r="1" fill="none"/>
  <circle cx="5" cy="10" r="1" fill="rgba(0,0,0,0.00392157)"/>
  <circle cx="6" cy="10" r="1" fill="rgba(83,83,83,0.623529)"/>
  <circle cx="7" cy="10" r="1" fill="rgba(124,124,124,0.960784)"/>
  <circle cx="8" cy="10" r="1" fill="rgba(167,167,167,1)"/>
  <circle cx="9" cy="10" r="1" fill="rgba(123,123,123,1)"/>
  <circle cx="10" cy="10" r="1" fill="rgba(106,106,106,1)"/>
  <circle cx="11" cy="10" r="1" fill="rgba(118,118,118,1)"/>
  <circle cx="12" cy="10" r="1" fill="grey47"/>
  <circle cx="13" cy="10" r="1" fill="grey42"/>
  <circle cx="14" cy="10" r="1" fill="rgba(118,118,118,1)"/>
  <circle cx="15" cy="10" r="1" fill="grey63"/>
  <circle cx="16" cy="10" r="1" fill="rgba(108,108,108,0.956863)"/>
  <circle cx="17" cy="10" r="1" fill="rgba(82,82,82,0.623529)"/>
  <circle cx="18" cy="10" r="1" fill="rgba(0,0,0,0.00392157)"/>
  <circle cx="19" cy="10" r="1" fill="none"/>
  <circle cx="20" cy="10" r="1" fill="none"/>
  <circle cx="21" cy="10" r="1" fill="none"/>
  <circle cx="22" cy="10" r="1" fill="none"/>
  <circle cx="23" cy="10" r="1" fill="none"/>
  <circle cx="0" cy="11" r="1" fill="none"/>
  <circle cx="1" cy="11" r="1" fill="none"/>
  <circle cx="2" cy="11" r="1" fill="none"/>
  <circle cx="3" cy="11" r="1" fill="none"/>
  <circle cx="4" cy="11" r="1" fill="none"/>
  <circle cx="5" cy="11" r="1" fill="none"/>
  <circle cx="6" cy="11" r="1" fill="rgba(0,0,0,0.00392157)"/>
  <circle cx="7" cy="11" r="1" fill="rgba(82,82,82,0.623529)"/>
  <circle cx="8" cy="11" r="1" fill="rgba(108,108,108,0.956863)"/>
  <circle cx="9" cy="11" r="1" fill="grey63"/>
  <circle cx="10" cy="11" r="1" fill="rgba(116,116,116,1)"/>
  <circle cx="11" cy="11" r="1" fill="grey40"/>
  <circle cx="12" cy="11" r="1" fill="grey40"/>
  <circle cx="13" cy="11" r="1" fill="rgba(116,116,116,1)"/>
  <circle cx="14" cy="11" r="1" fill="grey63"/>
  <circle cx="15" cy="11" r="1" fill="rgba(108,108,108,0.956863)"/>
  <circle cx="16" cy="11" r="1" fill="rgba(82,82,82,0.623529)"/>
  <circle cx="17" cy="11" r="1" fill="rgba(0,0,0,0.00392157)"/>
  <circle cx="18" cy="11" r="1" fill="none"/>
  <circle cx="19" cy="11" r="1" fill="none"/>
  <circle cx="20" cy="11" r="1" fill="none"/>
  <circle cx="21" cy="11" r="1" fill="none"/>
  <circle cx="22" cy="11" r="1" fill="none"/>
  <circle cx="23" cy="11" r="1" fill="none"/>
  <circle cx="0" cy="12" r="1" fill="none"/>
  <circle cx="1" cy="12" r="1" fill="none"/>
  <circle cx="2" cy="12" r="1" fill="none"/>
  <circle cx="3" cy="12" r="1" fill="none"/>
  <circle cx="4" cy="12" r="1" fill="none"/>
  <circle cx="5" cy="12" r="1" fill="none"/>
  <circle cx="6" cy="12" r="1" fill="rgba(0,0,0,0.00392157)"/>
  <circle cx="7" cy="12" r="1" fill="rgba(82,82,82,0.623529)"/>
  <circle cx="8" cy="12" r="1" fill="rgba(108,108,108,0.956863)"/>
  <circle cx="9" cy="12" r="1" fill="grey63"/>
  <circle cx="10" cy="12" r="1" fill="rgba(116,116,116,1)"/>
  <circle cx="11" cy="12" r="1" fill="grey40"/>
  <circle cx="12" cy="12" r="1" fill="grey40"/>
  <circle cx="13" cy="12" r="1" fill="rgba(116,116,116,1)"/>
  <circle cx="14" cy="12" r="1" fill="grey63"/>
  <circle cx="15" cy="12" r="1" fill="rgba(108,108,108,0.956863)"/>
  <circle cx="16" cy="12" r="1" fill="rgba(82,82,82,0.623529)"/>
  <circle cx="17" cy="12" r="1" fill="rgba(0,0,0,0.00392157)"/>
  <circle cx="18" cy="12" r="1" fill="none"/>
  <circle cx="19" cy="12" r="1" fill="none"/>
  <circle cx="20" cy="12" r="1" fill="none"/>
  <circle cx="21" cy="12" r="1" fill="none"/>
  <circle cx="22" cy="12" r="1" fill="none"/>
  <circle cx="23" cy="12" r="1" fill="none"/>
  <circle cx="0" cy="13" r="1" fill="none"/>
  <circle cx="1" cy="13" r="1" fill="none"/>
  <circle cx="2" cy="13" r="1" fill="none"/>
  <circle cx="3" cy="13" r="1" fill="none"/>
  <circle cx="4" cy="13" r="1" fill="none"/>
  <circle cx="5" cy="13" r="1" fill="rgba(0,0,0,0.00392157)"/>
  <circle cx="6" cy="13" r="1" fill="rgba(82,82,82,0.623529)"/>
  <circle cx="7" cy="13" r="1" fill="rgba(108,108,108,0.956863)"/>
  <circle cx="8" cy="13" r="1" fill="rgba(160,160,160,1)"/>
  <circle cx="9" cy="13" r="1" fill="grey45"/>
  <circle cx="10" cy="13" r="1" fill="grey40"/>
  <circle cx="11" cy="13" r="1" fill="rgba(116,116,116,1)"/>
  <circle cx="12" cy="13" r="1" fill="rgba(116,116,116,1)"/>
  <circle cx="13" cy="13" r="1" fill="grey40"/>
  <circle cx="14" cy="13" r="1" fill="rgba(116,116,116,1)"/>
  <circle cx="15" cy="13" r="1" fill="rgba(160,160,160,1)"/>
  <circle cx="16" cy="13" r="1" fill="rgba(108,108,108,0.956863)"/>
  <circle cx="17" cy="13" r="1" fill="rgba(82,82,82,0.623529)"/>
  <circle cx="18" cy="13" r="1" fill="rgba(0,0,0,0.00392157)"/>
  <circle cx="19" cy="13" r="1" fill="none"/>
  <circle cx="20" cy="13" r="1" fill="none"/>
  <circle cx="21" cy="13" r="1" fill="none"/>
  <circle cx="22" cy="13" r="1" fill="none"/>
  <circle cx="23" cy="13" r="1" fill="none"/>
  <circle cx="0" cy="14" r="1" fill="none"/>
  <circle cx="1" cy="14" r="1" fill="none"/>
  <circle cx="2" cy="14" r="1" fill="none"/>
  <circle cx="3" cy="14" r="1" fill="none"/>
  <circle cx="4" cy="14" r="1" fill="rgba(0,0,0,0.00392157)"/>
  <circle cx="5" cy="14" r="1" fill="rgba(82,82,82,0.623529)"/>
  <circle cx="6" cy="14" r="1" fill="rgba(108,108,108,0.956863)"/>
  <circle cx="7" cy="14" r="1" fill="rgba(160,160,160,1)"/>
  <circle cx="8" cy="14" r="1" fill="grey45"/>
  <circle cx="9" cy="14" r="1" fill="grey40"/>
  <circle cx="10" cy="14" r="1" fill="grey45"/>
  <circle cx="11" cy="14" r="1" fill="grey63"/>
  <circle cx="12" cy="14" r="1" fill="grey63"/>
  <circle cx="13" cy="14" r="1" fill="rgba(116,116,116,1)"/>
  <circle cx="14" cy="14" r="1" fill="grey40"/>
  <circle cx="15" cy="14" r="1" fill="rgba(116,116,116,1)"/>
  <circle cx="16" cy="14" r="1" fill="rgba(160,160,160,1)"/>
  <circle cx="17" cy="14" r="1" fill="rgba(108,108,108,0.956863)"/>
  <circle cx="18" cy="14" r="1" fill="rgba(82,82,82,0.623529)"/>
  <circle cx="19" cy="14" r="1" fill="rgba(0,0,0,0.00392157)"/>
  <circle cx="20" cy="14" r="1" fill="none"/>
  <circle cx="21" cy="14" r="1" fill="none"/>
  <circle cx="22" cy="14" r="1" fill="none"/>
  <circle cx="23" cy="14" r="1" fill="none"/>
  <circle cx="0" cy="15" r="1" fill="none"/>
  <circle cx="1" cy="15" r="1" fill="none"/>
  <circle cx="2" cy="15" r="1" fill="none"/>
  <circle cx="3" cy="15" r="1" fill="rgba(0,0,0,0.00392157)"/>
  <circle cx="4" cy="15" r="1" fill="rgba(83,83,83,0.627451)"/>
  <circle cx="5" cy="15" r="1" fill="rgba(108,108,108,0.956863)"/>
  <circle cx="6" cy="15" r="1" fill="rgba(160,160,160,1)"/>
  <circle cx="7" cy="15" r="1" fill="grey45"/>
  <circle cx="8" cy="15" r="1" fill="grey40"/>
  <circle cx="9" cy="15" r="1" fill="grey45"/>
  <circle cx="10" cy="15" r="1" fill="rgba(160,160,160,1)"/>
  <circle cx="11" cy="15" r="1" fill="rgba(108,108,108,0.956863)"/>
  <circle cx="12" cy="15" r="1" fill="rgba(108,108,108,0.956863)"/>
  <circle cx="13" cy="15" r="1" fill="rgba(160,160,160,1)"/>
  <circle cx="14" cy="15" r="1" fill="rgba(116,116,116,1)"/>
  <circle cx="15" cy="15" r="1" fill="grey40"/>
  <circle cx="16" cy="15" r="1" fill="rgba(116,116,116,1)"/>
  <circle cx="17" cy="15" r="1" fill="rgba(160,160,160,1)"/>
  <circle cx="18" cy="15" r="1" fill="rgba(108,108,108,0.956863)"/>
  <circle cx="19" cy="15" r="1" fill="rgba(83,83,83,0.627451)"/>
  <circle cx="20" cy="15" r="1" fill="rgba(0,0,0,0.00392157)"/>
  <circle cx="21" cy="15" r="1" fill="none"/>
  <circle cx="22" cy="15" r="1" fill="none"/>
  <circle cx="23" cy="15" r="1" fill="none"/>
  <circle cx="0" cy="16" r="1" fill="none"/>
  <circle cx="1" cy="16" r="1" fill="none"/>
  <circle cx="2" cy="16" r="1" fill="none"/>
  <circle cx="3" cy="16" r="1" fill="rgba(85,85,85,0.0352941)"/>
  <circle cx="4" cy="16" r="1" fill="rgba(82,82,82,0.788235)"/>
  <circle cx="5" cy="16" r="1" fill="rgba(119,119,119,0.972549)"/>
  <circle cx="6" cy="16" r="1" fill="grey62"/>
  <circle cx="7" cy="16" r="1" fill="grey43"/>
  <circle cx="8" cy="16" r="1" fill="grey45"/>
  <circle cx="9" cy="16" r="1" fill="rgba(160,160,160,1)"/>
  <circle cx="10" cy="16" r="1" fill="rgba(108,108,108,0.956863)"/>
  <circle cx="11" cy="16" r="1" fill="rgba(82,82,82,0.623529)"/>
  <circle cx="12" cy="16" r="1" fill="rgba(82,82,82,0.623529)"/>
  <circle cx="13" cy="16" r="1" fill="rgba(108,108,108,0.956863)"/>
  <circle cx="14" cy="16" r="1" fill="rgba(160,160,160,1)"/>
  <circle cx="15" cy="16" r="1" fill="rgba(116,116,116,1)"/>
  <circle cx="16" cy="16" r="1" fill="rgba(109,109,109,1)"/>
  <circle cx="17" cy="16" r="1" fill="grey62"/>
  <circle cx="18" cy="16" r="1" fill="rgba(121,121,121,0.972549)"/>
  <circle cx="19" cy="16" r="1" fill="rgba(82,82,82,0.788235)"/>
  <circle cx="20" cy="16" r="1" fill="rgba(85,85,85,0.0352941)"/>
  <circle cx="21" cy="16" r="1" fill="none"/>
  <circle cx="22" cy="16" r="1" fill="none"/>
  <circle cx="23" cy="16" r="1" fill="none"/>
  <circle cx="0" cy="17" r="1" fill="none"/>
  <circle cx="1" cy="17" r="1" fill="none"/>
  <circle cx="2" cy="17" r="1" fill="none"/>
  <circle cx="3" cy="17" r="1" fill="none"/>
  <circle cx="4" cy="17" r="1" fill="rgba(77,77,77,0.0392157)"/>
  <circle cx="5" cy="17" r="1" fill="rgba(84,84,84,0.788235)"/>
  <circle cx="6" cy="17" r="1" fill="rgba(119,119,119,0.972549)"/>
  <circle cx="7" cy="17" r="1" fill="grey62"/>
  <circle cx="8" cy="17" r="1" fill="rgba(160,160,160,1)"/>
  <circle cx="9" cy="17" r="1" fill="rgba(108,108,108,0.956863)"/>
  <circle cx="10" cy="17" r="1" fill="rgba(82,82,82,0.623529)"/>
  <circle cx="11" cy="17" r="1" fill="rgba(0,0,0,0.00392157)"/>
  <circle cx="12" cy="17" r="1" fill="rgba(0,0,0,0.00392157)"/>
  <circle cx="13" cy="17" r="1" fill="rgba(82,82,82,0.623529)"/>
  <circle cx="14" cy="17" r="1" fill="rgba(108,108,108,0.956863)"/>
  <circle cx="15" cy="17" r="1" fill="rgba(160,160,160,1)"/>
  <circle cx="16" cy="17" r="1" fill="grey62"/>
  <circle cx="17" cy="17" r="1" fill="rgba(121,121,121,0.972549)"/>
  <circle cx="18" cy="17" r="1" fill="rgba(84,84,84,0.788235)"/>
  <circle cx="19" cy="17" r="1" fill="rgba(77,77,77,0.0392157)"/>
  <circle cx="20" cy="17" r="1" fill="none"/>
  <circle cx="21" cy="17" r="1" fill="none"/>
  <circle cx="22" cy="17" r="1" fill="none"/>
  <circle cx="23" cy="17" r="1" fill="none"/>
  <circle cx="0" cy="18" r="1" fill="none"/>
  <circle cx="1" cy="18" r="1" fill="none"/>
  <circle cx="2" cy="18" r="1" fill="none"/>
  <circle cx="3" cy="18" r="1" fill="none"/>
  <circle cx="4" cy="18" r="1" fill="none"/>
  <circle cx="5" cy="18" r="1" fill="rgba(77,77,77,0.0392157)"/>
  <circle cx="6" cy="18" r="1" fill="rgba(84,84,84,0.788235)"/>
  <circle cx="7" cy="18" r="1" fill="rgba(119,119,119,0.972549)"/>
  <circle cx="8" cy="18" r="1" fill="rgba(108,108,108,0.956863)"/>
  <circle cx="9" cy="18" r="1" fill="rgba(82,82,82,0.623529)"/>
  <circle cx="10" cy="18" r="1" fill="rgba(0,0,0,0.00392157)"/>
  <circle cx="11" cy="18" r="1" fill="none"/>
  <circle cx="12" cy="18" r="1" fill="none"/>
  <circle cx="13" cy="18" r="1" fill="rgba(0,0,0,0.00392157)"/>
  <circle cx="14" cy="18" r="1" fill="rgba(82,82,82,0.623529)"/>
  <circle cx="15" cy="18" r="1" fill="rgba(108,108,108,0.956863)"/>
  <circle cx="16" cy="18" r="1" fill="rgba(121,121,121,0.972549)"/>
  <circle cx="17" cy="18" r="1" fill="rgba(84,84,84,0.788235)"/>
  <circle cx="18" cy="18" r="1" fill="rgba(77,77,77,0.0392157)"/>
  <circle cx="19" cy="18" r="1" fill="none"/>
  <circle cx="20" cy="18" r="1" fill="none"/>
  <circle cx="21" cy="18" r="1" fill="none"/>
  <circle cx="22" cy="18" r="1" fill="none"/>
  <circle cx="23" cy="18" r="1" fill="none"/>
  <circle cx="0" cy="19" r="1" fill="none"/>
  <circle cx="1" cy="19" r="1" fill="none"/>
  <circle cx="2" cy="19" r="1" fill="none"/>
  <circle cx="3" cy="19" r="1" fill="none"/>
  <circle cx="4" cy="19" r="1" fill="none"/>
  <circle cx="5" cy="19" r="1" fill="none"/>
  <circle cx="6" cy="19" r="1" fill="rgba(77,77,77,0.0392157)"/>
  <circle cx="7" cy="19" r="1" fill="rgba(82,82,82,0.788235)"/>
  <circle cx="8" cy="19" r="1" fill="rgba(83,83,83,0.627451)"/>
  <circle cx="9" cy="19" r="1" fill="rgba(0,0,0,0.00392157)"/>
  <circle cx="10" cy="19" r="1" fill="none"/>
  <circle cx="11" cy="19" r="1" fill="none"/>
  <circle cx="12" cy="19" r="1" fill="none"/>
  <circle cx="13" cy="19" r="1" fill="none"/>
  <circle cx="14" cy="19" r="1" fill="rgba(0,0,0,0.00392157)"/>
  <circle cx="15" cy="19" r="1" fill="rgba(83,83,83,0.627451)"/>
  <circle cx="16" cy="19" r="1" fill="rgba(82,82,82,0.788235)"/>
  <circle cx="17" cy="19" r="1" fill="rgba(77,77,77,0.0392157)"/>
  <circle cx="18" cy="19" r="1" fill="none"/>
  <circle cx="19" cy="19" r="1" fill="none"/>
  <circle cx="20" cy="19" r="1" fill="none"/>
  <circle cx="21" cy="19" r="1" fill="none"/>
  <circle cx="22" cy="19" r="1" fill="none"/>
  <circle cx="23" cy="19" r="1" fill="none"/>
  <circle cx="0" cy="20" r="1" fill="none"/>
  <circle cx="1" cy="20" r="1" fill="none"/>
  <circle cx="2" cy="20" r="1" fill="none"/>
  <circle cx="3" cy="20" r="1" fill="none"/>
  <circle cx="4" cy="20" r="1" fill="none"/>
  <circle cx="5" cy="20" r="1" fill="none"/>
  <circle cx="6" cy="20" r="1" fill="none"/>
  <circle cx="7" cy="20" r="1" fill="rgba(85,85,85,0.0352941)"/>
  <circle cx="8" cy="20" r="1" fill="rgba(0,0,0,0.00392157)"/>
  <circle cx="9" cy="20" r="1" fill="none"/>
  <circle cx="10" cy="20" r="1" fill="none"/>
  <circle cx="11" cy="20" r="1" fill="none"/>
  <circle cx="12" cy="20" r="1" fill="none"/>
  <circle cx="13" cy="20" r="1" fill="none"/>
  <circle cx="14" cy="20" r="1" fill="none"/>
  <circle cx="15" cy="20" r="1" fill="rgba(0,0,0,0.00392157)"/>
  <circle cx="16" cy="20" r="1" fill="rgba(85,85,85,0.0352941)"/>
  <circle cx="17" cy="20" r="1" fill="none"/>
  <circle cx="18" cy="20" r="1" fill="none"/>
  <circle cx="19" cy="20" r="1" fill="none"/>
  <circle cx="20" cy="20" r="1" fill="none"/>
  <circle cx="21" cy="20" r="1" fill="none"/>
  <circle cx="22" cy="20" r="1" fill="none"/>
  <circle cx="23" cy="20" r="1" fill="none"/>
  <circle cx="0" cy="21" r="1" fill="none"/>
  <circle cx="1" cy="21" r="1" fill="none"/>
  <circle cx="2" cy="21" r="1" fill="none"/>
  <circle cx="3" cy="21" r="1" fill="none"/>
  <circle cx="4" cy="21" r="1" fill="none"/>
  <circle cx="5" cy="21" r="1" fill="none"/>
  <circle cx="6" cy="21" r="1" fill="none"/>
  <circle cx="7" cy="21" r="1" fill="none"/>
  <circle cx="8" cy="21" r="1" fill="none"/>
  <circle cx="9" cy="21" r="1" fill="none"/>
  <circle cx="10" cy="21" r="1" fill="none"/>
  <circle cx="11" cy="21" r="1" fill="none"/>
  <circle cx="12" cy="21" r="1" fill="none"/>
  <circle cx="13" cy="21" r="1" fill="none"/>
  <circle cx="14" cy="21" r="1" fill="none"/>
  <circle cx="15" cy="21" r="1" fill="none"/>
  <circle cx="16" cy="21" r="1" fill="none"/>
  <circle cx="17" cy="21" r="1" fill="none"/>
  <circle cx="18" cy="21" r="1" fill="none"/>
  <circle cx="19" cy="21" r="1" fill="none"/>
  <circle cx="20" cy="21" r="1" fill="none"/>
  <circle cx="21" cy="21" r="1" fill="none"/>
  <circle cx="22" cy="21" r="1" fill="none"/>
  <circle cx="23" cy="21" r="1" fill="none"/>
  <circle cx="0" cy="22" r="1" fill="none"/>
  <circle cx="1" cy="22" r="1" fill="none"/>
  <circle cx="2" cy="22" r="1" fill="none"/>
  <circle cx="3" cy="22" r="1" fill="none"/>
  <circle cx="4" cy="22" r="1" fill="none"/>
  <circle cx="5" cy="22" r="1" fill="none"/>
  <circle cx="6" cy="22" r="1" fill="none"/>
  <circle cx="7" cy="22" r="1" fill="none"/>
  <circle cx="8" cy="22" r="1" fill="none"/>
  <circle cx="9" cy="22" r="1" fill="none"/>
  <circle cx="10" cy="22" r="1" fill="none"/>
  <circle cx="11" cy="22" r="1" fill="none"/>
  <circle cx="12" cy="22" r="1" fill="none"/>
  <circle cx="13" cy="22" r="1" fill="none"/>
  <circle cx="14" cy="22" r="1" fill="none"/>
  <circle cx="15" cy="22" r="1" fill="none"/>
  <circle cx="16" cy="22" r="1" fill="none"/>
  <circle cx="17" cy="22" r="1" fill="none"/>
  <circle cx="18" cy="22" r="1" fill="none"/>
  <circle cx="19" cy="22" r="1" fill="none"/>
  <circle cx="20" cy="22" r="1" fill="none"/>
  <circle cx="21" cy="22" r="1" fill="none"/>
  <circle cx="22" cy="22" r="1" fill="none"/>
  <circle cx="23" cy="22" r="1" fill="none"/>
  <circle cx="0" cy="23" r="1" fill="none"/>
  <circle cx="1" cy="23" r="1" fill="none"/>
  <circle cx="2" cy="23" r="1" fill="none"/>
  <circle cx="3" cy="23" r="1" fill="none"/>
  <circle cx="4" cy="23" r="1" fill="none"/>
  <circle cx="5" cy="23" r="1" fill="none"/>
  <circle cx="6" cy="23" r="1" fill="none"/>
  <circle cx="7" cy="23" r="1" fill="none"/>
  <circle cx="8" cy="23" r="1" fill="none"/>
  <circle cx="9" cy="23" r="1" fill="none"/>
  <circle cx="10" cy="23" r="1" fill="none"/>
  <circle cx="11" cy="23" r="1" fill="none"/>
  <circle cx="12" cy="23" r="1" fill="none"/>
  <circle cx="13" cy="23" r="1" fill="none"/>
  <circle cx="14" cy="23" r="1" fill="none"/>
  <circle cx="15" cy="23" r="1" fill="none"/>
  <circle cx="16" cy="23" r="1" fill="none"/>
  <circle cx="17" cy="23" r="1" fill="none"/>
  <circle cx="18" cy="23" r="1" fill="none"/>
  <circle cx="19" cy="23" r="1" fill="none"/>
  <circle cx="20" cy="23" r="1" fill="none"/>
  <circle cx="21" cy="23" r="1" fill="none"/>
  <circle cx="22" cy="23" r="1" fill="none"/>
  <circle cx="23" cy="23" r="1" fill="none"/>
</svg>
