<?xml version="1.0" encoding="UTF-8" standalone="no"?>
<!-- Generator: Adobe Illustrator 16.1.0, SVG Export Plug-In . SVG Version: 6.00 Build 0)  -->

<svg
   xmlns:dc="http://purl.org/dc/elements/1.1/"
   xmlns:cc="http://creativecommons.org/ns#"
   xmlns:rdf="http://www.w3.org/1999/02/22-rdf-syntax-ns#"
   xmlns:svg="http://www.w3.org/2000/svg"
   xmlns="http://www.w3.org/2000/svg"
   xmlns:sodipodi="http://sodipodi.sourceforge.net/DTD/sodipodi-0.dtd"
   xmlns:inkscape="http://www.inkscape.org/namespaces/inkscape"
   version="1.1"
   id="Layer_1"
   x="0px"
   y="0px"
   width="48px"
   height="48px"
   viewBox="0 0 48 48"
   enable-background="new 0 0 48 48"
   xml:space="preserve"
   inkscape:version="0.48.4 r9939"
   sodipodi:docname="Bmda.svg"><metadata
   id="metadata6128"><rdf:RDF><cc:Work
       rdf:about=""><dc:format>image/svg+xml</dc:format><dc:type
         rdf:resource="http://purl.org/dc/dcmitype/StillImage" /><dc:title /></cc:Work></rdf:RDF></metadata><defs
   id="defs6126">
	
	
	
	
	
</defs><sodipodi:namedview
   pagecolor="#ffffff"
   bordercolor="#666666"
   borderopacity="1"
   objecttolerance="10"
   gridtolerance="10"
   guidetolerance="10"
   inkscape:pageopacity="0"
   inkscape:pageshadow="2"
   inkscape:window-width="1366"
   inkscape:window-height="706"
   id="namedview6124"
   showgrid="false"
   inkscape:zoom="4.9166667"
   inkscape:cx="-10.180946"
   inkscape:cy="27.634008"
   inkscape:window-x="-8"
   inkscape:window-y="-8"
   inkscape:window-maximized="1"
   inkscape:current-layer="Layer_1" />

<g
   transform="matrix(1.1478972,0,0,1.7124858,-3.613843,-1.6763164)"
   id="g6265-0-7"><path
     d="M 40.973329,6.9865659 25.377461,6.0093309 V 4.9021235 c -0.333752,0.040555 -0.677901,0.068895 -1.039725,0.068895 -0.361824,0 -0.705973,-0.02834 -1.039724,-0.069384 V 6.0088423 L 7.7021424,6.9860779 v 1.893881 H 9.7815918 V 7.8416469 L 23.298012,6.9948729 v 2.862321 h 2.079449 v -2.862321 l 13.516419,0.846774 v 1.038312 h 2.079449 v -1.893393 z"
     id="path6114-5-6"
     inkscape:connector-curvature="0"
     style="fill:#666666" /><g
     transform="matrix(0.59322034,0,0,0.45338983,9.663754,1.4271765)"
     id="g6209-4-1"><polygon
       transform="translate(1.0067283,-28.435553)"
       style="fill:#333333"
       id="polygon6118-3-67-7"
       points="20,29 20,37 28,37 28,29 25,29 23,29 " /><rect
       style="fill:#666666"
       id="rect6153-9-2"
       width="5.5370054"
       height="5.3931875"
       x="22.291842"
       y="1.7624077" /></g><g
     transform="matrix(0.58050847,0,0,0.50423729,3.2126698,-0.36166249)"
     id="g6213-3-3"><polygon
       style="fill:#333333"
       id="polygon6116-4-7"
       points="5,35 13,35 13,27 10,27 8,27 5,27 "
       transform="translate(0.71909164,-10.498738)" /><rect
       style="fill:#f9f9f9"
       id="rect6153-8-7-8"
       width="5.5370054"
       height="5.3931875"
       x="6.9392347"
       y="17.834106" /></g><g
     transform="matrix(0.59322034,0,0,0.45338983,9.6739748,9.2186614)"
     id="g6209-8-8-5"><polygon
       transform="translate(1.0067283,-28.435553)"
       style="fill:#333333"
       id="polygon6118-3-6-8-8"
       points="28,37 28,29 25,29 23,29 20,29 20,37 " /><rect
       style="fill:#666666"
       id="rect6153-0-1-5"
       width="5.5370054"
       height="5.3931875"
       x="22.291842"
       y="1.7624077" /></g><g
     transform="matrix(0.58050847,0,0,0.50423729,34.324087,0.13707551)"
     id="g6213-1-6-8"><polygon
       style="fill:#333333"
       id="polygon6116-2-3-7"
       points="5,35 13,35 13,27 10,27 8,27 5,27 "
       transform="translate(0.71909164,-10.498738)" /><rect
       style="fill:#f9f9f9"
       id="rect6153-8-6-8-3"
       width="5.5370054"
       height="5.3931875"
       x="6.9392347"
       y="17.834106" /></g></g><g
   transform="matrix(1.1478972,0,0,1.7124858,-3.4104527,21.510124)"
   id="g6265-0-7-3"><path
     d="M 40.973329,6.9865659 25.377461,6.0093309 V 4.9021235 c -0.333752,0.040555 -0.677901,0.068895 -1.039725,0.068895 -0.361824,0 -0.705973,-0.02834 -1.039724,-0.069384 V 6.0088423 L 7.7021424,6.9860779 v 1.893881 H 9.7815918 V 7.8416469 L 23.298012,6.9948729 v 2.862321 h 2.079449 v -2.862321 l 13.516419,0.846774 v 1.038312 h 2.079449 v -1.893393 z"
     id="path6114-5-6-1"
     inkscape:connector-curvature="0"
     style="fill:#666666" /><g
     transform="matrix(0.59322034,0,0,0.45338983,9.663754,1.4271765)"
     id="g6209-4-1-0"><polygon
       transform="translate(1.0067283,-28.435553)"
       style="fill:#333333"
       id="polygon6118-3-67-7-8"
       points="20,29 20,37 28,37 28,29 25,29 23,29 " /><rect
       style="fill:#666666"
       id="rect6153-9-2-1"
       width="5.5370054"
       height="5.3931875"
       x="22.291842"
       y="1.7624077" /></g><g
     transform="matrix(0.58050847,0,0,0.50423729,3.2126698,-0.36166249)"
     id="g6213-3-3-0"><polygon
       style="fill:#333333"
       id="polygon6116-4-7-9"
       points="5,35 13,35 13,27 10,27 8,27 5,27 "
       transform="translate(0.71909164,-10.498738)" /><rect
       style="fill:#f9f9f9"
       id="rect6153-8-7-8-2"
       width="5.5370054"
       height="5.3931875"
       x="6.9392347"
       y="17.834106" /></g><g
     transform="matrix(0.59322034,0,0,0.45338983,9.6739748,9.2186614)"
     id="g6209-8-8-5-4"><polygon
       transform="translate(1.0067283,-28.435553)"
       style="fill:#333333"
       id="polygon6118-3-6-8-8-9"
       points="28,37 28,29 25,29 23,29 20,29 20,37 " /><rect
       style="fill:#666666"
       id="rect6153-0-1-5-1"
       width="5.5370054"
       height="5.3931875"
       x="22.291842"
       y="1.7624077" /></g><g
     transform="matrix(0.58050847,0,0,0.50423729,34.324087,0.13707551)"
     id="g6213-1-6-8-5"><polygon
       style="fill:#333333"
       id="polygon6116-2-3-7-7"
       points="5,35 13,35 13,27 10,27 8,27 5,27 "
       transform="translate(0.71909164,-10.498738)" /><rect
       style="fill:#f9f9f9"
       id="rect6153-8-6-8-3-3"
       width="5.5370054"
       height="5.3931875"
       x="6.9392347"
       y="17.834106" /></g></g></svg>