<?xml version="1.0" encoding="UTF-8" standalone="no"?>
<!-- Generator: Adobe Illustrator 16.1.0, SVG Export Plug-In . SVG Version: 6.00 Build 0)  -->

<svg
   xmlns:dc="http://purl.org/dc/elements/1.1/"
   xmlns:cc="http://creativecommons.org/ns#"
   xmlns:rdf="http://www.w3.org/1999/02/22-rdf-syntax-ns#"
   xmlns:svg="http://www.w3.org/2000/svg"
   xmlns="http://www.w3.org/2000/svg"
   xmlns:sodipodi="http://sodipodi.sourceforge.net/DTD/sodipodi-0.dtd"
   xmlns:inkscape="http://www.inkscape.org/namespaces/inkscape"
   version="1.1"
   id="Layer_1"
   x="0px"
   y="0px"
   width="48px"
   height="48px"
   viewBox="0 0 48 48"
   enable-background="new 0 0 48 48"
   xml:space="preserve"
   inkscape:version="0.48.4 r9939"
   sodipodi:docname="BlackBox.svg"><metadata
   id="metadata3037"><rdf:RDF><cc:Work
       rdf:about=""><dc:format>image/svg+xml</dc:format><dc:type
         rdf:resource="http://purl.org/dc/dcmitype/StillImage" /><dc:title></dc:title></cc:Work></rdf:RDF></metadata><defs
   id="defs3035">
	
	
	

		
		
		
		
		
		
	</defs><sodipodi:namedview
   pagecolor="#ffffff"
   bordercolor="#666666"
   borderopacity="1"
   objecttolerance="10"
   gridtolerance="10"
   guidetolerance="10"
   inkscape:pageopacity="0"
   inkscape:pageshadow="2"
   inkscape:window-width="1366"
   inkscape:window-height="706"
   id="namedview3033"
   showgrid="false"
   inkscape:zoom="7.6455921"
   inkscape:cx="-10.821212"
   inkscape:cy="22.328953"
   inkscape:window-x="-8"
   inkscape:window-y="-8"
   inkscape:window-maximized="1"
   inkscape:current-layer="Layer_1" />
<polygon
   points="35.563,32.502 19.901,36.674 20.017,19.018 35.679,14.844 "
   id="polygon3019"
   style="fill:#000000"
   transform="translate(5.0975947,2.0324266)" /><polygon
   points="24.616,9.996 11.067,14.513 5.327,12.579 20.563,8.6 "
   id="polygon3023"
   style="fill:#000000"
   transform="matrix(1.2589154,0,0,0.92179473,1.6836702,3.8148186)" />
<polygon
   points="35.563,32.502 19.901,36.674 20.017,19.018 35.679,14.844 "
   id="polygon3019-0"
   style="fill:#000000"
   transform="matrix(-1,0,0,1,43.80089,1.8919233)" /><polygon
   points="5.327,12.579 20.563,8.6 24.616,9.996 11.067,14.513 "
   id="polygon3023-9"
   style="fill:#000000"
   transform="matrix(1.2589154,0,0,0.92179473,6.0416507,4.8825956)" /><polygon
   points="5.327,12.579 20.563,8.6 24.616,9.996 11.067,14.513 "
   id="polygon3023-4"
   style="fill:#000000"
   transform="matrix(1.2589154,0,0,0.92179473,10.665929,5.9924226)" /><polygon
   style="fill:#666666"
   id="polygon3029-1-8"
   points="39.233,21.734 32.31,21.734 32.31,28.502 28.712,28.502 35.636,37.734 42.56,28.502 39.233,28.502 "
   transform="matrix(-0.0226493,-0.55399617,0.83774251,-0.0199531,-13.632848,48.067372)" /><polygon
   style="fill:#666666"
   id="polygon3029-1-8-8"
   points="42.56,28.502 39.233,28.502 39.233,21.734 32.31,21.734 32.31,28.502 28.712,28.502 35.636,37.734 "
   transform="matrix(-0.63920431,0.01591545,-0.01418686,-0.8379385,47.866703,32.928412)" /><text
   xml:space="preserve"
   style="font-size:75.4941864px;font-style:normal;font-weight:normal;line-height:125%;letter-spacing:0px;word-spacing:0px;fill:#ffffff;fill-opacity:1;stroke:none;font-family:Sans"
   x="27.510994"
   y="33.17334"
   id="text3210"
   sodipodi:linespacing="125%"
   transform="scale(1.0337519,0.9673501)"><tspan
     sodipodi:role="line"
     id="tspan3212"
     x="27.510994"
     y="33.17334"
     style="font-size:15.09883785px;fill:#ffffff">?</tspan></text>
</svg>