<?xml version="1.0" standalone="no"?>
<!DOCTYPE svg PUBLIC "-//W3C//DTD SVG 20010904//EN"
  "http://www.w3.org/TR/2001/REC-SVG-20010904/DTD/svg10.dtd">
<svg width="22" height="22">
  <circle cx="0" cy="0" r="1" fill="rgba(255,255,255,0)"/>
  <circle cx="1" cy="0" r="1" fill="rgba(255,255,255,0)"/>
  <circle cx="2" cy="0" r="1" fill="rgba(255,255,255,0)"/>
  <circle cx="3" cy="0" r="1" fill="rgba(255,255,255,0)"/>
  <circle cx="4" cy="0" r="1" fill="rgba(255,255,255,0)"/>
  <circle cx="5" cy="0" r="1" fill="rgba(255,255,255,0)"/>
  <circle cx="6" cy="0" r="1" fill="rgba(255,255,255,0)"/>
  <circle cx="7" cy="0" r="1" fill="rgba(255,255,255,0)"/>
  <circle cx="8" cy="0" r="1" fill="rgba(255,255,255,0)"/>
  <circle cx="9" cy="0" r="1" fill="rgba(255,255,255,0)"/>
  <circle cx="10" cy="0" r="1" fill="rgba(255,255,255,0)"/>
  <circle cx="11" cy="0" r="1" fill="rgba(255,255,255,0)"/>
  <circle cx="12" cy="0" r="1" fill="rgba(255,255,255,0)"/>
  <circle cx="13" cy="0" r="1" fill="rgba(255,255,255,0)"/>
  <circle cx="14" cy="0" r="1" fill="rgba(255,255,255,0)"/>
  <circle cx="15" cy="0" r="1" fill="rgba(255,255,255,0)"/>
  <circle cx="16" cy="0" r="1" fill="rgba(255,255,255,0)"/>
  <circle cx="17" cy="0" r="1" fill="rgba(255,255,255,0)"/>
  <circle cx="18" cy="0" r="1" fill="rgba(255,255,255,0)"/>
  <circle cx="19" cy="0" r="1" fill="rgba(255,255,255,0)"/>
  <circle cx="20" cy="0" r="1" fill="rgba(255,255,255,0)"/>
  <circle cx="21" cy="0" r="1" fill="rgba(255,255,255,0)"/>
  <circle cx="0" cy="1" r="1" fill="rgba(255,255,255,0)"/>
  <circle cx="1" cy="1" r="1" fill="rgba(255,255,255,0)"/>
  <circle cx="2" cy="1" r="1" fill="rgba(255,255,255,0)"/>
  <circle cx="3" cy="1" r="1" fill="rgba(255,255,255,0)"/>
  <circle cx="4" cy="1" r="1" fill="rgba(255,255,255,0)"/>
  <circle cx="5" cy="1" r="1" fill="rgba(255,255,255,0)"/>
  <circle cx="6" cy="1" r="1" fill="rgba(255,255,255,0)"/>
  <circle cx="7" cy="1" r="1" fill="rgba(255,255,255,0)"/>
  <circle cx="8" cy="1" r="1" fill="rgba(255,255,255,0)"/>
  <circle cx="9" cy="1" r="1" fill="rgba(255,255,255,0)"/>
  <circle cx="10" cy="1" r="1" fill="rgba(255,255,255,0)"/>
  <circle cx="11" cy="1" r="1" fill="rgba(255,255,255,0)"/>
  <circle cx="12" cy="1" r="1" fill="rgba(255,255,255,0)"/>
  <circle cx="13" cy="1" r="1" fill="rgba(255,255,255,0)"/>
  <circle cx="14" cy="1" r="1" fill="rgba(255,255,255,0)"/>
  <circle cx="15" cy="1" r="1" fill="rgba(255,255,255,0)"/>
  <circle cx="16" cy="1" r="1" fill="rgba(255,255,255,0)"/>
  <circle cx="17" cy="1" r="1" fill="rgba(255,255,255,0)"/>
  <circle cx="18" cy="1" r="1" fill="rgba(255,255,255,0)"/>
  <circle cx="19" cy="1" r="1" fill="rgba(255,255,255,0)"/>
  <circle cx="20" cy="1" r="1" fill="rgba(255,255,255,0)"/>
  <circle cx="21" cy="1" r="1" fill="rgba(255,255,255,0)"/>
  <circle cx="0" cy="2" r="1" fill="rgba(255,255,255,0)"/>
  <circle cx="1" cy="2" r="1" fill="rgba(255,255,255,0)"/>
  <circle cx="2" cy="2" r="1" fill="rgba(255,255,255,0)"/>
  <circle cx="3" cy="2" r="1" fill="rgba(255,255,255,0)"/>
  <circle cx="4" cy="2" r="1" fill="rgba(255,255,255,0)"/>
  <circle cx="5" cy="2" r="1" fill="rgba(255,255,255,0)"/>
  <circle cx="6" cy="2" r="1" fill="rgba(255,255,255,0)"/>
  <circle cx="7" cy="2" r="1" fill="rgba(255,255,255,0)"/>
  <circle cx="8" cy="2" r="1" fill="rgba(255,255,255,0)"/>
  <circle cx="9" cy="2" r="1" fill="rgba(255,255,255,0)"/>
  <circle cx="10" cy="2" r="1" fill="rgba(255,255,255,0)"/>
  <circle cx="11" cy="2" r="1" fill="rgba(255,255,255,0)"/>
  <circle cx="12" cy="2" r="1" fill="rgba(255,255,255,0)"/>
  <circle cx="13" cy="2" r="1" fill="rgba(255,255,255,0)"/>
  <circle cx="14" cy="2" r="1" fill="rgba(255,255,255,0)"/>
  <circle cx="15" cy="2" r="1" fill="rgba(255,255,255,0)"/>
  <circle cx="16" cy="2" r="1" fill="rgba(8,155,0,0.172549)"/>
  <circle cx="17" cy="2" r="1" fill="rgba(21,134,13,0.980392)"/>
  <circle cx="18" cy="2" r="1" fill="rgba(31,133,21,0.835294)"/>
  <circle cx="19" cy="2" r="1" fill="rgba(255,255,255,0)"/>
  <circle cx="20" cy="2" r="1" fill="rgba(255,255,255,0)"/>
  <circle cx="21" cy="2" r="1" fill="rgba(255,255,255,0)"/>
  <circle cx="0" cy="3" r="1" fill="rgba(255,255,255,0)"/>
  <circle cx="1" cy="3" r="1" fill="rgba(255,255,255,0)"/>
  <circle cx="2" cy="3" r="1" fill="rgba(255,255,255,0)"/>
  <circle cx="3" cy="3" r="1" fill="rgba(255,255,255,0)"/>
  <circle cx="4" cy="3" r="1" fill="rgba(255,255,255,0)"/>
  <circle cx="5" cy="3" r="1" fill="rgba(255,255,255,0)"/>
  <circle cx="6" cy="3" r="1" fill="rgba(255,255,255,0)"/>
  <circle cx="7" cy="3" r="1" fill="rgba(255,255,255,0)"/>
  <circle cx="8" cy="3" r="1" fill="rgba(255,255,255,0)"/>
  <circle cx="9" cy="3" r="1" fill="rgba(255,255,255,0)"/>
  <circle cx="10" cy="3" r="1" fill="rgba(255,255,255,0)"/>
  <circle cx="11" cy="3" r="1" fill="rgba(255,255,255,0)"/>
  <circle cx="12" cy="3" r="1" fill="rgba(255,255,255,0)"/>
  <circle cx="13" cy="3" r="1" fill="rgba(255,255,255,0)"/>
  <circle cx="14" cy="3" r="1" fill="rgba(255,255,255,0)"/>
  <circle cx="15" cy="3" r="1" fill="rgba(5,158,0,0.0313725)"/>
  <circle cx="16" cy="3" r="1" fill="rgba(12,133,4,0.976471)"/>
  <circle cx="17" cy="3" r="1" fill="rgba(155,191,153,1)"/>
  <circle cx="18" cy="3" r="1" fill="rgba(122,174,117,1)"/>
  <circle cx="19" cy="3" r="1" fill="rgba(12,108,4,0.701961)"/>
  <circle cx="20" cy="3" r="1" fill="rgba(255,255,255,0)"/>
  <circle cx="21" cy="3" r="1" fill="rgba(255,255,255,0)"/>
  <circle cx="0" cy="4" r="1" fill="rgba(255,255,255,0)"/>
  <circle cx="1" cy="4" r="1" fill="rgba(255,255,255,0)"/>
  <circle cx="2" cy="4" r="1" fill="rgba(255,255,255,0)"/>
  <circle cx="3" cy="4" r="1" fill="rgba(255,255,255,0)"/>
  <circle cx="4" cy="4" r="1" fill="rgba(255,255,255,0)"/>
  <circle cx="5" cy="4" r="1" fill="rgba(255,255,255,0)"/>
  <circle cx="6" cy="4" r="1" fill="rgba(255,255,255,0)"/>
  <circle cx="7" cy="4" r="1" fill="rgba(255,255,255,0)"/>
  <circle cx="8" cy="4" r="1" fill="rgba(255,255,255,0)"/>
  <circle cx="9" cy="4" r="1" fill="rgba(255,255,255,0)"/>
  <circle cx="10" cy="4" r="1" fill="rgba(255,255,255,0)"/>
  <circle cx="11" cy="4" r="1" fill="rgba(255,255,255,0)"/>
  <circle cx="12" cy="4" r="1" fill="rgba(255,255,255,0)"/>
  <circle cx="13" cy="4" r="1" fill="rgba(255,255,255,0)"/>
  <circle cx="14" cy="4" r="1" fill="rgba(7,156,0,0.0156863)"/>
  <circle cx="15" cy="4" r="1" fill="rgba(9,138,1,0.956863)"/>
  <circle cx="16" cy="4" r="1" fill="rgba(129,175,124,1)"/>
  <circle cx="17" cy="4" r="1" fill="rgba(164,203,159,1)"/>
  <circle cx="18" cy="4" r="1" fill="rgba(171,206,168,1)"/>
  <circle cx="19" cy="4" r="1" fill="rgba(52,123,46,1)"/>
  <circle cx="20" cy="4" r="1" fill="rgba(0,81,0,0.596078)"/>
  <circle cx="21" cy="4" r="1" fill="rgba(255,255,255,0)"/>
  <circle cx="0" cy="5" r="1" fill="rgba(255,255,255,0)"/>
  <circle cx="1" cy="5" r="1" fill="rgba(255,255,255,0)"/>
  <circle cx="2" cy="5" r="1" fill="rgba(255,255,255,0)"/>
  <circle cx="3" cy="5" r="1" fill="rgba(255,255,255,0)"/>
  <circle cx="4" cy="5" r="1" fill="rgba(255,255,255,0)"/>
  <circle cx="5" cy="5" r="1" fill="rgba(255,255,255,0)"/>
  <circle cx="6" cy="5" r="1" fill="rgba(255,255,255,0)"/>
  <circle cx="7" cy="5" r="1" fill="rgba(255,255,255,0)"/>
  <circle cx="8" cy="5" r="1" fill="rgba(255,255,255,0)"/>
  <circle cx="9" cy="5" r="1" fill="rgba(255,255,255,0)"/>
  <circle cx="10" cy="5" r="1" fill="rgba(255,255,255,0)"/>
  <circle cx="11" cy="5" r="1" fill="rgba(255,255,255,0)"/>
  <circle cx="12" cy="5" r="1" fill="rgba(255,255,255,0)"/>
  <circle cx="13" cy="5" r="1" fill="rgba(255,255,255,0)"/>
  <circle cx="14" cy="5" r="1" fill="rgba(8,139,0,0.917647)"/>
  <circle cx="15" cy="5" r="1" fill="rgba(113,166,108,1)"/>
  <circle cx="16" cy="5" r="1" fill="rgba(192,229,187,1)"/>
  <circle cx="17" cy="5" r="1" fill="rgba(97,178,87,1)"/>
  <circle cx="18" cy="5" r="1" fill="rgba(13,116,6,1)"/>
  <circle cx="19" cy="5" r="1" fill="rgba(116,176,110,1)"/>
  <circle cx="20" cy="5" r="1" fill="rgba(37,98,32,1)"/>
  <circle cx="21" cy="5" r="1" fill="rgba(4,70,0,0.392157)"/>
  <circle cx="0" cy="6" r="1" fill="rgba(255,255,255,0)"/>
  <circle cx="1" cy="6" r="1" fill="rgba(255,255,255,0)"/>
  <circle cx="2" cy="6" r="1" fill="rgba(255,255,255,0)"/>
  <circle cx="3" cy="6" r="1" fill="rgba(255,255,255,0)"/>
  <circle cx="4" cy="6" r="1" fill="rgba(255,255,255,0)"/>
  <circle cx="5" cy="6" r="1" fill="rgba(255,255,255,0)"/>
  <circle cx="6" cy="6" r="1" fill="rgba(255,255,255,0)"/>
  <circle cx="7" cy="6" r="1" fill="rgba(255,255,255,0)"/>
  <circle cx="8" cy="6" r="1" fill="rgba(255,255,255,0)"/>
  <circle cx="9" cy="6" r="1" fill="rgba(255,255,255,0)"/>
  <circle cx="10" cy="6" r="1" fill="rgba(255,255,255,0)"/>
  <circle cx="11" cy="6" r="1" fill="rgba(255,255,255,0)"/>
  <circle cx="12" cy="6" r="1" fill="rgba(255,255,255,0)"/>
  <circle cx="13" cy="6" r="1" fill="rgba(9,139,0,0.862745)"/>
  <circle cx="14" cy="6" r="1" fill="rgba(98,159,92,1)"/>
  <circle cx="15" cy="6" r="1" fill="rgba(199,240,195,1)"/>
  <circle cx="16" cy="6" r="1" fill="rgba(108,206,96,1)"/>
  <circle cx="17" cy="6" r="1" fill="rgba(29,145,19,1)"/>
  <circle cx="18" cy="6" r="1" fill="rgba(0,135,0,1)"/>
  <circle cx="19" cy="6" r="1" fill="rgba(57,157,47,1)"/>
  <circle cx="20" cy="6" r="1" fill="rgba(35,93,32,1)"/>
  <circle cx="21" cy="6" r="1" fill="rgba(4,66,1,0.403922)"/>
  <circle cx="0" cy="7" r="1" fill="rgba(255,255,255,0)"/>
  <circle cx="1" cy="7" r="1" fill="rgba(255,255,255,0)"/>
  <circle cx="2" cy="7" r="1" fill="rgba(255,255,255,0)"/>
  <circle cx="3" cy="7" r="1" fill="rgba(20,153,7,0.713725)"/>
  <circle cx="4" cy="7" r="1" fill="rgba(16,140,6,0.945098)"/>
  <circle cx="5" cy="7" r="1" fill="rgba(16,165,4,0.2)"/>
  <circle cx="6" cy="7" r="1" fill="rgba(255,255,255,0)"/>
  <circle cx="7" cy="7" r="1" fill="rgba(255,255,255,0)"/>
  <circle cx="8" cy="7" r="1" fill="rgba(255,255,255,0)"/>
  <circle cx="9" cy="7" r="1" fill="rgba(255,255,255,0)"/>
  <circle cx="10" cy="7" r="1" fill="rgba(255,255,255,0)"/>
  <circle cx="11" cy="7" r="1" fill="rgba(255,255,255,0)"/>
  <circle cx="12" cy="7" r="1" fill="rgba(7,144,0,0.788235)"/>
  <circle cx="13" cy="7" r="1" fill="rgba(80,153,74,1)"/>
  <circle cx="14" cy="7" r="1" fill="rgba(192,238,187,1)"/>
  <circle cx="15" cy="7" r="1" fill="rgba(114,228,99,1)"/>
  <circle cx="16" cy="7" r="1" fill="rgba(36,165,23,1)"/>
  <circle cx="17" cy="7" r="1" fill="rgba(10,162,0,1)"/>
  <circle cx="18" cy="7" r="1" fill="rgba(28,156,15,1)"/>
  <circle cx="19" cy="7" r="1" fill="rgba(29,97,25,1)"/>
  <circle cx="20" cy="7" r="1" fill="rgba(26,83,20,0.619608)"/>
  <circle cx="21" cy="7" r="1" fill="rgba(255,255,255,0)"/>
  <circle cx="0" cy="8" r="1" fill="rgba(255,255,255,0)"/>
  <circle cx="1" cy="8" r="1" fill="rgba(255,255,255,0)"/>
  <circle cx="2" cy="8" r="1" fill="rgba(0,145,0,0.592157)"/>
  <circle cx="3" cy="8" r="1" fill="rgba(90,174,82,1)"/>
  <circle cx="4" cy="8" r="1" fill="rgba(159,208,155,1)"/>
  <circle cx="5" cy="8" r="1" fill="rgba(8,146,0,0.956863)"/>
  <circle cx="6" cy="8" r="1" fill="rgba(10,162,0,0.0313725)"/>
  <circle cx="7" cy="8" r="1" fill="rgba(255,255,255,0)"/>
  <circle cx="8" cy="8" r="1" fill="rgba(255,255,255,0)"/>
  <circle cx="9" cy="8" r="1" fill="rgba(255,255,255,0)"/>
  <circle cx="10" cy="8" r="1" fill="rgba(255,255,255,0)"/>
  <circle cx="11" cy="8" r="1" fill="rgba(15,159,0,0.701961)"/>
  <circle cx="12" cy="8" r="1" fill="rgba(66,151,59,1)"/>
  <circle cx="13" cy="8" r="1" fill="rgba(185,230,179,1)"/>
  <circle cx="14" cy="8" r="1" fill="rgba(127,255,115,1)"/>
  <circle cx="15" cy="8" r="1" fill="rgba(51,189,37,1)"/>
  <circle cx="16" cy="8" r="1" fill="rgba(23,178,6,1)"/>
  <circle cx="17" cy="8" r="1" fill="rgba(37,169,22,1)"/>
  <circle cx="18" cy="8" r="1" fill="rgba(15,90,9,1)"/>
  <circle cx="19" cy="8" r="1" fill="rgba(5,67,0,0.72549)"/>
  <circle cx="20" cy="8" r="1" fill="rgba(255,255,255,0)"/>
  <circle cx="21" cy="8" r="1" fill="rgba(255,255,255,0)"/>
  <circle cx="0" cy="9" r="1" fill="rgba(255,255,255,0)"/>
  <circle cx="1" cy="9" r="1" fill="rgba(16,137,2,0.454902)"/>
  <circle cx="2" cy="9" r="1" fill="rgba(69,157,61,1)"/>
  <circle cx="3" cy="9" r="1" fill="rgba(206,231,201,1)"/>
  <circle cx="4" cy="9" r="1" fill="rgba(236,244,233,1)"/>
  <circle cx="5" cy="9" r="1" fill="rgba(132,194,129,1)"/>
  <circle cx="6" cy="9" r="1" fill="rgba(0,145,0,0.917647)"/>
  <circle cx="7" cy="9" r="1" fill="rgba(255,255,255,0)"/>
  <circle cx="8" cy="9" r="1" fill="rgba(255,255,255,0)"/>
  <circle cx="9" cy="9" r="1" fill="rgba(255,255,255,0)"/>
  <circle cx="10" cy="9" r="1" fill="rgba(23,170,8,0.580392)"/>
  <circle cx="11" cy="9" r="1" fill="rgba(58,150,50,1)"/>
  <circle cx="12" cy="9" r="1" fill="rgba(190,239,186,1)"/>
  <circle cx="13" cy="9" r="1" fill="rgba(133,255,121,1)"/>
  <circle cx="14" cy="9" r="1" fill="rgba(73,215,57,1)"/>
  <circle cx="15" cy="9" r="1" fill="rgba(36,190,20,1)"/>
  <circle cx="16" cy="9" r="1" fill="rgba(48,182,33,1)"/>
  <circle cx="17" cy="9" r="1" fill="rgba(19,99,13,1)"/>
  <circle cx="18" cy="9" r="1" fill="rgba(3,65,0,0.819608)"/>
  <circle cx="19" cy="9" r="1" fill="rgba(255,255,255,0)"/>
  <circle cx="20" cy="9" r="1" fill="rgba(255,255,255,0)"/>
  <circle cx="21" cy="9" r="1" fill="rgba(255,255,255,0)"/>
  <circle cx="0" cy="10" r="1" fill="rgba(9,124,1,0.360784)"/>
  <circle cx="1" cy="10" r="1" fill="rgba(74,149,68,1)"/>
  <circle cx="2" cy="10" r="1" fill="rgba(184,223,179,1)"/>
  <circle cx="3" cy="10" r="1" fill="rgba(193,232,189,1)"/>
  <circle cx="4" cy="10" r="1" fill="rgba(183,245,176,1)"/>
  <circle cx="5" cy="10" r="1" fill="rgba(242,255,238,1)"/>
  <circle cx="6" cy="10" r="1" fill="rgba(115,188,109,1)"/>
  <circle cx="7" cy="10" r="1" fill="rgba(9,157,0,0.878431)"/>
  <circle cx="8" cy="10" r="1" fill="rgba(255,255,255,0)"/>
  <circle cx="9" cy="10" r="1" fill="rgba(36,180,21,0.454902)"/>
  <circle cx="10" cy="10" r="1" fill="rgba(49,152,41,1)"/>
  <circle cx="11" cy="10" r="1" fill="rgba(205,255,199,1)"/>
  <circle cx="12" cy="10" r="1" fill="rgba(151,255,139,1)"/>
  <circle cx="13" cy="10" r="1" fill="rgba(96,250,81,1)"/>
  <circle cx="14" cy="10" r="1" fill="rgba(49,202,33,1)"/>
  <circle cx="15" cy="10" r="1" fill="rgba(58,195,44,1)"/>
  <circle cx="16" cy="10" r="1" fill="rgba(24,109,18,1)"/>
  <circle cx="17" cy="10" r="1" fill="rgba(2,72,0,0.882353)"/>
  <circle cx="18" cy="10" r="1" fill="rgba(255,255,255,0)"/>
  <circle cx="19" cy="10" r="1" fill="rgba(255,255,255,0)"/>
  <circle cx="20" cy="10" r="1" fill="rgba(255,255,255,0)"/>
  <circle cx="21" cy="10" r="1" fill="rgba(255,255,255,0)"/>
  <circle cx="0" cy="11" r="1" fill="rgba(12,118,5,0.576471)"/>
  <circle cx="1" cy="11" r="1" fill="rgba(72,145,67,1)"/>
  <circle cx="2" cy="11" r="1" fill="rgba(98,195,87,1)"/>
  <circle cx="3" cy="11" r="1" fill="rgba(145,214,137,1)"/>
  <circle cx="4" cy="11" r="1" fill="rgba(170,223,164,1)"/>
  <circle cx="5" cy="11" r="1" fill="rgba(163,239,155,1)"/>
  <circle cx="6" cy="11" r="1" fill="rgba(230,255,227,1)"/>
  <circle cx="7" cy="11" r="1" fill="rgba(92,166,85,1)"/>
  <circle cx="8" cy="11" r="1" fill="rgba(38,169,25,0.823529)"/>
  <circle cx="9" cy="11" r="1" fill="rgba(71,162,64,1)"/>
  <circle cx="10" cy="11" r="1" fill="rgba(203,255,197,1)"/>
  <circle cx="11" cy="11" r="1" fill="rgba(171,255,157,1)"/>
  <circle cx="12" cy="11" r="1" fill="rgba(106,247,91,1)"/>
  <circle cx="13" cy="11" r="1" fill="rgba(63,217,47,1)"/>
  <circle cx="14" cy="11" r="1" fill="rgba(70,211,55,1)"/>
  <circle cx="15" cy="11" r="1" fill="rgba(32,127,25,1)"/>
  <circle cx="16" cy="11" r="1" fill="rgba(3,94,0,0.929412)"/>
  <circle cx="17" cy="11" r="1" fill="rgba(255,255,255,0)"/>
  <circle cx="18" cy="11" r="1" fill="rgba(255,255,255,0)"/>
  <circle cx="19" cy="11" r="1" fill="rgba(255,255,255,0)"/>
  <circle cx="20" cy="11" r="1" fill="rgba(255,255,255,0)"/>
  <circle cx="21" cy="11" r="1" fill="rgba(255,255,255,0)"/>
  <circle cx="0" cy="12" r="1" fill="rgba(10,120,3,0.0313725)"/>
  <circle cx="1" cy="12" r="1" fill="rgba(60,137,51,0.85098)"/>
  <circle cx="2" cy="12" r="1" fill="rgba(69,148,62,1)"/>
  <circle cx="3" cy="12" r="1" fill="rgba(61,191,47,1)"/>
  <circle cx="4" cy="12" r="1" fill="rgba(125,215,115,1)"/>
  <circle cx="5" cy="12" r="1" fill="rgba(163,228,156,1)"/>
  <circle cx="6" cy="12" r="1" fill="rgba(165,253,154,1)"/>
  <circle cx="7" cy="12" r="1" fill="rgba(223,255,219,1)"/>
  <circle cx="8" cy="12" r="1" fill="rgba(101,169,98,1)"/>
  <circle cx="9" cy="12" r="1" fill="rgba(187,241,183,1)"/>
  <circle cx="10" cy="12" r="1" fill="rgba(169,255,158,1)"/>
  <circle cx="11" cy="12" r="1" fill="rgba(114,248,100,1)"/>
  <circle cx="12" cy="12" r="1" fill="rgba(74,226,59,1)"/>
  <circle cx="13" cy="12" r="1" fill="rgba(81,224,66,1)"/>
  <circle cx="14" cy="12" r="1" fill="rgba(42,145,35,1)"/>
  <circle cx="15" cy="12" r="1" fill="rgba(6,110,0,0.960784)"/>
  <circle cx="16" cy="12" r="1" fill="rgba(255,255,255,0)"/>
  <circle cx="17" cy="12" r="1" fill="rgba(255,255,255,0)"/>
  <circle cx="18" cy="12" r="1" fill="rgba(255,255,255,0)"/>
  <circle cx="19" cy="12" r="1" fill="rgba(255,255,255,0)"/>
  <circle cx="20" cy="12" r="1" fill="rgba(255,255,255,0)"/>
  <circle cx="21" cy="12" r="1" fill="rgba(255,255,255,0)"/>
  <circle cx="0" cy="13" r="1" fill="rgba(255,255,255,0)"/>
  <circle cx="1" cy="13" r="1" fill="rgba(52,135,42,0.0627451)"/>
  <circle cx="2" cy="13" r="1" fill="rgba(29,111,21,0.905882)"/>
  <circle cx="3" cy="13" r="1" fill="rgba(42,142,32,1)"/>
  <circle cx="4" cy="13" r="1" fill="rgba(62,206,46,1)"/>
  <circle cx="5" cy="13" r="1" fill="rgba(111,221,100,1)"/>
  <circle cx="6" cy="13" r="1" fill="rgba(153,234,145,1)"/>
  <circle cx="7" cy="13" r="1" fill="rgba(160,255,150,1)"/>
  <circle cx="8" cy="13" r="1" fill="rgba(211,255,205,1)"/>
  <circle cx="9" cy="13" r="1" fill="rgba(188,255,177,1)"/>
  <circle cx="10" cy="13" r="1" fill="rgba(121,248,108,1)"/>
  <circle cx="11" cy="13" r="1" fill="rgba(84,231,69,1)"/>
  <circle cx="12" cy="13" r="1" fill="rgba(91,236,76,1)"/>
  <circle cx="13" cy="13" r="1" fill="rgba(55,173,47,1)"/>
  <circle cx="14" cy="13" r="1" fill="rgba(14,119,6,0.980392)"/>
  <circle cx="15" cy="13" r="1" fill="rgba(255,255,255,0)"/>
  <circle cx="16" cy="13" r="1" fill="rgba(255,255,255,0)"/>
  <circle cx="17" cy="13" r="1" fill="rgba(255,255,255,0)"/>
  <circle cx="18" cy="13" r="1" fill="rgba(255,255,255,0)"/>
  <circle cx="19" cy="13" r="1" fill="rgba(255,255,255,0)"/>
  <circle cx="20" cy="13" r="1" fill="rgba(255,255,255,0)"/>
  <circle cx="21" cy="13" r="1" fill="rgba(255,255,255,0)"/>
  <circle cx="0" cy="14" r="1" fill="rgba(255,255,255,0)"/>
  <circle cx="1" cy="14" r="1" fill="rgba(255,255,255,0)"/>
  <circle cx="2" cy="14" r="1" fill="rgba(23,114,14,0.105882)"/>
  <circle cx="3" cy="14" r="1" fill="rgba(9,114,0,0.941176)"/>
  <circle cx="4" cy="14" r="1" fill="rgba(43,158,32,1)"/>
  <circle cx="5" cy="14" r="1" fill="rgba(77,225,62,1)"/>
  <circle cx="6" cy="14" r="1" fill="rgba(102,231,89,1)"/>
  <circle cx="7" cy="14" r="1" fill="rgba(145,246,135,1)"/>
  <circle cx="8" cy="14" r="1" fill="rgba(154,253,144,1)"/>
  <circle cx="9" cy="14" r="1" fill="rgba(126,241,113,1)"/>
  <circle cx="10" cy="14" r="1" fill="rgba(102,255,85,1)"/>
  <circle cx="11" cy="14" r="1" fill="rgba(108,255,91,1)"/>
  <circle cx="12" cy="14" r="1" fill="rgba(65,198,56,1)"/>
  <circle cx="13" cy="14" r="1" fill="rgba(23,128,16,0.992157)"/>
  <circle cx="14" cy="14" r="1" fill="rgba(47,198,30,0.0156863)"/>
  <circle cx="15" cy="14" r="1" fill="rgba(255,255,255,0)"/>
  <circle cx="16" cy="14" r="1" fill="rgba(255,255,255,0)"/>
  <circle cx="17" cy="14" r="1" fill="rgba(255,255,255,0)"/>
  <circle cx="18" cy="14" r="1" fill="rgba(255,255,255,0)"/>
  <circle cx="19" cy="14" r="1" fill="rgba(255,255,255,0)"/>
  <circle cx="20" cy="14" r="1" fill="rgba(255,255,255,0)"/>
  <circle cx="21" cy="14" r="1" fill="rgba(255,255,255,0)"/>
  <circle cx="0" cy="15" r="1" fill="rgba(255,255,255,0)"/>
  <circle cx="1" cy="15" r="1" fill="rgba(255,255,255,0)"/>
  <circle cx="2" cy="15" r="1" fill="rgba(255,255,255,0)"/>
  <circle cx="3" cy="15" r="1" fill="rgba(9,127,0,0.137255)"/>
  <circle cx="4" cy="15" r="1" fill="rgba(11,129,1,0.964706)"/>
  <circle cx="5" cy="15" r="1" fill="rgba(55,170,46,1)"/>
  <circle cx="6" cy="15" r="1" fill="rgba(95,243,80,1)"/>
  <circle cx="7" cy="15" r="1" fill="rgba(106,245,91,1)"/>
  <circle cx="8" cy="15" r="1" fill="rgba(124,246,111,1)"/>
  <circle cx="9" cy="15" r="1" fill="rgba(107,251,92,1)"/>
  <circle cx="10" cy="15" r="1" fill="rgba(124,255,107,1)"/>
  <circle cx="11" cy="15" r="1" fill="rgba(73,212,64,1)"/>
  <circle cx="12" cy="15" r="1" fill="rgba(28,135,22,0.996078)"/>
  <circle cx="13" cy="15" r="1" fill="rgba(70,217,53,0.121569)"/>
  <circle cx="14" cy="15" r="1" fill="rgba(255,255,255,0)"/>
  <circle cx="15" cy="15" r="1" fill="rgba(255,255,255,0)"/>
  <circle cx="16" cy="15" r="1" fill="rgba(255,255,255,0)"/>
  <circle cx="17" cy="15" r="1" fill="rgba(255,255,255,0)"/>
  <circle cx="18" cy="15" r="1" fill="rgba(255,255,255,0)"/>
  <circle cx="19" cy="15" r="1" fill="rgba(255,255,255,0)"/>
  <circle cx="20" cy="15" r="1" fill="rgba(255,255,255,0)"/>
  <circle cx="21" cy="15" r="1" fill="rgba(255,255,255,0)"/>
  <circle cx="0" cy="16" r="1" fill="rgba(255,255,255,0)"/>
  <circle cx="1" cy="16" r="1" fill="rgba(255,255,255,0)"/>
  <circle cx="2" cy="16" r="1" fill="rgba(255,255,255,0)"/>
  <circle cx="3" cy="16" r="1" fill="rgba(255,255,255,0)"/>
  <circle cx="4" cy="16" r="1" fill="rgba(15,154,2,0.188235)"/>
  <circle cx="5" cy="16" r="1" fill="rgba(17,138,7,0.976471)"/>
  <circle cx="6" cy="16" r="1" fill="rgba(68,185,59,1)"/>
  <circle cx="7" cy="16" r="1" fill="rgba(115,255,100,1)"/>
  <circle cx="8" cy="16" r="1" fill="rgba(113,255,99,1)"/>
  <circle cx="9" cy="16" r="1" fill="rgba(139,255,122,1)"/>
  <circle cx="10" cy="16" r="1" fill="rgba(94,237,84,1)"/>
  <circle cx="11" cy="16" r="1" fill="rgba(33,137,28,1)"/>
  <circle cx="12" cy="16" r="1" fill="rgba(89,234,73,0.254902)"/>
  <circle cx="13" cy="16" r="1" fill="rgba(255,255,255,0)"/>
  <circle cx="14" cy="16" r="1" fill="rgba(255,255,255,0)"/>
  <circle cx="15" cy="16" r="1" fill="rgba(255,255,255,0)"/>
  <circle cx="16" cy="16" r="1" fill="rgba(255,255,255,0)"/>
  <circle cx="17" cy="16" r="1" fill="rgba(255,255,255,0)"/>
  <circle cx="18" cy="16" r="1" fill="rgba(255,255,255,0)"/>
  <circle cx="19" cy="16" r="1" fill="rgba(255,255,255,0)"/>
  <circle cx="20" cy="16" r="1" fill="rgba(255,255,255,0)"/>
  <circle cx="21" cy="16" r="1" fill="rgba(255,255,255,0)"/>
  <circle cx="0" cy="17" r="1" fill="rgba(255,255,255,0)"/>
  <circle cx="1" cy="17" r="1" fill="rgba(255,255,255,0)"/>
  <circle cx="2" cy="17" r="1" fill="rgba(255,255,255,0)"/>
  <circle cx="3" cy="17" r="1" fill="rgba(255,255,255,0)"/>
  <circle cx="4" cy="17" r="1" fill="rgba(255,255,255,0)"/>
  <circle cx="5" cy="17" r="1" fill="rgba(30,174,15,0.270588)"/>
  <circle cx="6" cy="17" r="1" fill="rgba(24,145,16,0.992157)"/>
  <circle cx="7" cy="17" r="1" fill="rgba(89,202,81,1)"/>
  <circle cx="8" cy="17" r="1" fill="rgba(163,255,150,1)"/>
  <circle cx="9" cy="17" r="1" fill="rgba(128,255,117,1)"/>
  <circle cx="10" cy="17" r="1" fill="rgba(44,140,41,1)"/>
  <circle cx="11" cy="17" r="1" fill="rgba(120,247,106,0.384314)"/>
  <circle cx="12" cy="17" r="1" fill="rgba(255,255,255,0)"/>
  <circle cx="13" cy="17" r="1" fill="rgba(255,255,255,0)"/>
  <circle cx="14" cy="17" r="1" fill="rgba(255,255,255,0)"/>
  <circle cx="15" cy="17" r="1" fill="rgba(255,255,255,0)"/>
  <circle cx="16" cy="17" r="1" fill="rgba(255,255,255,0)"/>
  <circle cx="17" cy="17" r="1" fill="rgba(255,255,255,0)"/>
  <circle cx="18" cy="17" r="1" fill="rgba(255,255,255,0)"/>
  <circle cx="19" cy="17" r="1" fill="rgba(255,255,255,0)"/>
  <circle cx="20" cy="17" r="1" fill="rgba(255,255,255,0)"/>
  <circle cx="21" cy="17" r="1" fill="rgba(255,255,255,0)"/>
  <circle cx="0" cy="18" r="1" fill="rgba(255,255,255,0)"/>
  <circle cx="1" cy="18" r="1" fill="rgba(255,255,255,0)"/>
  <circle cx="2" cy="18" r="1" fill="rgba(255,255,255,0)"/>
  <circle cx="3" cy="18" r="1" fill="rgba(255,255,255,0)"/>
  <circle cx="4" cy="18" r="1" fill="rgba(255,255,255,0)"/>
  <circle cx="5" cy="18" r="1" fill="rgba(255,255,255,0)"/>
  <circle cx="6" cy="18" r="1" fill="rgba(49,194,34,0.34902)"/>
  <circle cx="7" cy="18" r="1" fill="rgba(39,154,32,0.996078)"/>
  <circle cx="8" cy="18" r="1" fill="rgba(94,199,88,1)"/>
  <circle cx="9" cy="18" r="1" fill="rgba(50,144,45,1)"/>
  <circle cx="10" cy="18" r="1" fill="rgba(156,243,148,0.501961)"/>
  <circle cx="11" cy="18" r="1" fill="rgba(255,255,255,0)"/>
  <circle cx="12" cy="18" r="1" fill="rgba(255,255,255,0)"/>
  <circle cx="13" cy="18" r="1" fill="rgba(255,255,255,0)"/>
  <circle cx="14" cy="18" r="1" fill="rgba(255,255,255,0)"/>
  <circle cx="15" cy="18" r="1" fill="rgba(255,255,255,0)"/>
  <circle cx="16" cy="18" r="1" fill="rgba(255,255,255,0)"/>
  <circle cx="17" cy="18" r="1" fill="rgba(255,255,255,0)"/>
  <circle cx="18" cy="18" r="1" fill="rgba(255,255,255,0)"/>
  <circle cx="19" cy="18" r="1" fill="rgba(255,255,255,0)"/>
  <circle cx="20" cy="18" r="1" fill="rgba(255,255,255,0)"/>
  <circle cx="21" cy="18" r="1" fill="rgba(255,255,255,0)"/>
  <circle cx="0" cy="19" r="1" fill="rgba(255,255,255,0)"/>
  <circle cx="1" cy="19" r="1" fill="rgba(255,255,255,0)"/>
  <circle cx="2" cy="19" r="1" fill="rgba(255,255,255,0)"/>
  <circle cx="3" cy="19" r="1" fill="rgba(255,255,255,0)"/>
  <circle cx="4" cy="19" r="1" fill="rgba(255,255,255,0)"/>
  <circle cx="5" cy="19" r="1" fill="rgba(255,255,255,0)"/>
  <circle cx="6" cy="19" r="1" fill="rgba(255,255,255,0)"/>
  <circle cx="7" cy="19" r="1" fill="rgba(70,217,55,0.498039)"/>
  <circle cx="8" cy="19" r="1" fill="rgba(32,135,27,0.996078)"/>
  <circle cx="9" cy="19" r="1" fill="rgba(110,232,99,0.670588)"/>
  <circle cx="10" cy="19" r="1" fill="rgba(255,255,255,0)"/>
  <circle cx="11" cy="19" r="1" fill="rgba(255,255,255,0)"/>
  <circle cx="12" cy="19" r="1" fill="rgba(255,255,255,0)"/>
  <circle cx="13" cy="19" r="1" fill="rgba(255,255,255,0)"/>
  <circle cx="14" cy="19" r="1" fill="rgba(255,255,255,0)"/>
  <circle cx="15" cy="19" r="1" fill="rgba(255,255,255,0)"/>
  <circle cx="16" cy="19" r="1" fill="rgba(255,255,255,0)"/>
  <circle cx="17" cy="19" r="1" fill="rgba(255,255,255,0)"/>
  <circle cx="18" cy="19" r="1" fill="rgba(255,255,255,0)"/>
  <circle cx="19" cy="19" r="1" fill="rgba(255,255,255,0)"/>
  <circle cx="20" cy="19" r="1" fill="rgba(255,255,255,0)"/>
  <circle cx="21" cy="19" r="1" fill="rgba(255,255,255,0)"/>
  <circle cx="0" cy="20" r="1" fill="rgba(255,255,255,0)"/>
  <circle cx="1" cy="20" r="1" fill="rgba(255,255,255,0)"/>
  <circle cx="2" cy="20" r="1" fill="rgba(255,255,255,0)"/>
  <circle cx="3" cy="20" r="1" fill="rgba(255,255,255,0)"/>
  <circle cx="4" cy="20" r="1" fill="rgba(255,255,255,0)"/>
  <circle cx="5" cy="20" r="1" fill="rgba(255,255,255,0)"/>
  <circle cx="6" cy="20" r="1" fill="rgba(255,255,255,0)"/>
  <circle cx="7" cy="20" r="1" fill="rgba(255,255,255,0)"/>
  <circle cx="8" cy="20" r="1" fill="rgba(255,255,255,0)"/>
  <circle cx="9" cy="20" r="1" fill="rgba(255,255,255,0)"/>
  <circle cx="10" cy="20" r="1" fill="rgba(255,255,255,0)"/>
  <circle cx="11" cy="20" r="1" fill="rgba(255,255,255,0)"/>
  <circle cx="12" cy="20" r="1" fill="rgba(255,255,255,0)"/>
  <circle cx="13" cy="20" r="1" fill="rgba(255,255,255,0)"/>
  <circle cx="14" cy="20" r="1" fill="rgba(255,255,255,0)"/>
  <circle cx="15" cy="20" r="1" fill="rgba(255,255,255,0)"/>
  <circle cx="16" cy="20" r="1" fill="rgba(255,255,255,0)"/>
  <circle cx="17" cy="20" r="1" fill="rgba(255,255,255,0)"/>
  <circle cx="18" cy="20" r="1" fill="rgba(255,255,255,0)"/>
  <circle cx="19" cy="20" r="1" fill="rgba(255,255,255,0)"/>
  <circle cx="20" cy="20" r="1" fill="rgba(255,255,255,0)"/>
  <circle cx="21" cy="20" r="1" fill="rgba(255,255,255,0)"/>
  <circle cx="0" cy="21" r="1" fill="rgba(255,255,255,0)"/>
  <circle cx="1" cy="21" r="1" fill="rgba(255,255,255,0)"/>
  <circle cx="2" cy="21" r="1" fill="rgba(255,255,255,0)"/>
  <circle cx="3" cy="21" r="1" fill="rgba(255,255,255,0)"/>
  <circle cx="4" cy="21" r="1" fill="rgba(255,255,255,0)"/>
  <circle cx="5" cy="21" r="1" fill="rgba(255,255,255,0)"/>
  <circle cx="6" cy="21" r="1" fill="rgba(255,255,255,0)"/>
  <circle cx="7" cy="21" r="1" fill="rgba(255,255,255,0)"/>
  <circle cx="8" cy="21" r="1" fill="rgba(255,255,255,0)"/>
  <circle cx="9" cy="21" r="1" fill="rgba(255,255,255,0)"/>
  <circle cx="10" cy="21" r="1" fill="rgba(255,255,255,0)"/>
  <circle cx="11" cy="21" r="1" fill="rgba(255,255,255,0)"/>
  <circle cx="12" cy="21" r="1" fill="rgba(255,255,255,0)"/>
  <circle cx="13" cy="21" r="1" fill="rgba(255,255,255,0)"/>
  <circle cx="14" cy="21" r="1" fill="rgba(255,255,255,0)"/>
  <circle cx="15" cy="21" r="1" fill="rgba(255,255,255,0)"/>
  <circle cx="16" cy="21" r="1" fill="rgba(255,255,255,0)"/>
  <circle cx="17" cy="21" r="1" fill="rgba(255,255,255,0)"/>
  <circle cx="18" cy="21" r="1" fill="rgba(255,255,255,0)"/>
  <circle cx="19" cy="21" r="1" fill="rgba(255,255,255,0)"/>
  <circle cx="20" cy="21" r="1" fill="rgba(255,255,255,0)"/>
  <circle cx="21" cy="21" r="1" fill="rgba(255,255,255,0)"/>
</svg>
